<svg xmlns="http://www.w3.org/2000/svg" viewBox="0 0 542.21 769.76"><defs><style>.cls-1{fill:#dc988d;}.cls-2{fill:#efc99c;}.cls-3{fill:#2f2d5e;}.cls-4{fill:#bfdcec;}.cls-5{fill:#4787c7;}.cls-6{fill:#f7d49c;}.cls-7{fill:#fff;}.cls-8{fill:#626667;}.cls-9{fill:#f2e271;}.cls-10{fill:#a2a2a2;}</style></defs><title>badminton</title><g id="Layer_2" data-name="Layer 2"><g id="Layer_1-2" data-name="Layer 1"><g id="badminton"><g id="illlus"><g id="Head"><g id="Neck"><polygon class="cls-1" points="251.9 291.05 283.35 291.05 283.64 254.88 251.9 291.05"/><polygon class="cls-2" points="250.98 291.05 219.53 291.05 219.24 254.88 250.98 291.05"/></g><g id="Ears"><path class="cls-2" d="M219.24,249s-14.39-17.45-9.67-30.19c0,0,5.9-6.37,9.67,3.77S219.24,249,219.24,249Z"/><path class="cls-1" d="M283.74,247.65s15.34-15,10.62-27.68c0,0-3.41-8.73-10.62,1.26C277.4,230,283.74,247.65,283.74,247.65Z"/></g><polygon id="Face" class="cls-2" points="219.24 210.29 219.24 262.19 251.9 291.05 283.65 256.06 283.35 210.29 278.92 195.91 270.43 191.9 254.63 191.9 239.53 190.25 232.45 192.84 226.79 195.91 219.24 210.29"/><path id="Hair" class="cls-3" d="M219.24,210.3s-.26-31.85,32.66-34c0,0,31.74,0,31.74,34,0,0-9.37-10.08-15.87-8,0,0,.45,6.42-16.33,8.78,0,0-16.33,2.55-16.33-8.61C235.11,202.52,232.92,199.65,219.24,210.3Z"/></g><path class="cls-4" d="M180.88,358.28V521.41H323.4V358.28L355,375.5l27.28-47.37s-25.75-23-71.78-34.81c0,0-77.92-13.61-126.73-.69l-76.08,69.95,27.27,42.47Z"/><polygon class="cls-5" points="180.88 521.41 174.92 620.65 234 632.47 256.14 574.37 263.25 598.55 261.27 649.7 323.4 649.7 323.4 521.41 180.88 521.41"/><path class="cls-6" d="M107.67,362.58,64.6,247.71,77.77,379.45s18.89,47.25,57.17,25.6Z"/><polygon class="cls-6" points="382.26 328.13 512.89 467.38 354.98 375.5 382.26 328.13"/><path class="cls-6" d="M512.53,466.82l29.68,4.34v25.69s-20.52-2-17.47-16.73Z"/><path class="cls-6" d="M234,632.47s-25.36,48.33-39.72,54.07c0,0-38.28,24.41-150.73-28.23l123.94-1,7.43-36.7Z"/><path class="cls-6" d="M323.4,649.7s-3.81,31.94-35.93,57.24c0,0-131.83,59.63-194.52,27.1L225,687.74l36.25-38Z"/><polygon class="cls-7" points="43.55 658.31 28.46 635 0 676.97 43.55 658.31"/><polygon class="cls-7" points="92.95 734.03 62.73 715.62 44.85 769.76 92.95 734.03"/><g id="Baddy_racquet" data-name="Baddy racquet"><path class="cls-8" d="M111.26,44.61S125.61-7.07,168,.82c39,7.27,17.95,75.37,17.95,75.37s-15.83,41.62-53.84,33.73S111.26,44.61,111.26,44.61Z"/><polygon class="cls-9" points="87.21 188.52 92.95 190.25 92.95 195.91 56.7 281.12 39.12 275.37 83.26 193.19 87.21 188.52"/><polygon class="cls-10" points="123.82 107.05 87.21 188.52 92.95 190.25 126.37 108.21 123.82 107.05"/></g></g></g></g></g></svg>