<svg xmlns="http://www.w3.org/2000/svg" viewBox="0 0 423.94 674.09"><defs><style>.cls-1{fill:#eea524;}.cls-2{fill:none;stroke:#290e56;stroke-miterlimit:10;stroke-width:2px;}.cls-3{fill:#edbf9b;}.cls-4{fill:#bc967d;}.cls-5{fill:#e2c340;}.cls-6{fill:#fff;}.cls-7{fill:#fcd841;}.cls-8{fill:#290d56;}</style></defs><title>BB male</title><g id="Layer_2" data-name="Layer 2"><g id="Layer_1-2" data-name="Layer 1"><g id="BB_male" data-name="BB male"><g id="Ill"><circle class="cls-1" cx="55.24" cy="391.58" r="55.24"/><line class="cls-2" x1="198.41" y1="152.94" x2="198.41" y2="185.13"/><g id="Body"><path class="cls-3" d="M268.81,511.15s20.3,66.76,41.76,132.34c0,0,5-82,24.64-132.34Z"/><polygon class="cls-4" points="214 152.94 229.81 136.65 289.07 136.65 289.07 185.13 214 185.13 214 152.94"/><g id="Arms"><path class="cls-3" d="M197.3,152.94l-48.88,32.19-7.95,129.56L97.55,358.41l7.15,25.44s92.6-25.44,80.89-160.62L214,206.59,205.65,169Z"/><g id="Arm_1" data-name="Arm 1"><path class="cls-3" d="M313,131.48S391.65,170,423.44,270.18c0,0,6.85,46.33-30.2,109.52V281.17L352.42,220.9l-17.48-35.77H313Z"/><path class="cls-3" d="M393.24,379.7l-16.16,22.69,34.7,34.45-8.21-24.91S423.18,385.88,393.24,379.7Z"/></g></g></g><g id="kit"><path class="cls-5" d="M229.8,377.21s4.86,108.56,38.25,122.86,17.79-122.86,17.79-122.86Z"/><polygon class="cls-6" points="310.57 643.49 268 674.09 334.94 674.09 310.57 643.49"/><path class="cls-7" d="M368.91,377.21s-23,106-21.38,141.77l-77.83-7.24s-9.29-119.43,16.14-134.53Z"/><polygon class="cls-7" points="368.91 377.21 334.94 185.13 174.65 185.13 229.81 377.21 368.91 377.21"/><rect class="cls-7" x="197.3" y="152.94" width="16.69" height="32.19"/><rect class="cls-7" x="289.07" y="131.48" width="23.89" height="53.65"/><polygon class="cls-6" points="349 516.02 382.05 494.99 367.2 557.63 349 516.02"/><line class="cls-2" x1="214" y1="154.03" x2="198.2" y2="154.03"/><line class="cls-2" x1="212.89" y1="186.25" x2="212.89" y2="153.86"/><line class="cls-2" x1="211.78" y1="186.25" x2="291.21" y2="186.25"/><line class="cls-2" x1="290.13" y1="187.22" x2="290.13" y2="146.58"/><line class="cls-2" x1="296.26" y1="132.6" x2="311.37" y2="132.6"/><line class="cls-2" x1="312.11" y1="131.48" x2="312.11" y2="185.18"/><line class="cls-2" x1="311.04" y1="186.27" x2="335.14" y2="186.27"/><line class="cls-2" x1="334.09" y1="185.66" x2="367.8" y2="377.21"/><circle class="cls-8" cx="263.09" cy="259.47" r="26.39"/></g><g id="head"><path d="M229.8,102.2s-32.26-9.48-34-52.46C194,2.58,265.53.19,265.53.19S302.09-4.58,313,33.31c9.36,32.64-16.7,44.51-16.7,44.51Z"/><polygon class="cls-3" points="229.81 146.58 229.81 74.64 237.44 68.29 237.44 55.57 249.37 51.59 296.26 51.59 296.26 146.58 229.81 146.58"/><path class="cls-3" d="M229.8,103.79s-10.37,9.27-15.8,0S209.09,88.16,214,85s9.93,0,9.93,0Z"/></g></g></g></g></g></svg>