<svg xmlns="http://www.w3.org/2000/svg" viewBox="0 0 447.26 682.78"><defs><style>.cls-1{fill:#290d56;}.cls-2{fill:#edbf9b;}.cls-3{fill:#bc967d;}.cls-4{fill:#eea524;}.cls-5{fill:#1b1b38;}.cls-6{fill:#fff;}.cls-7{fill:#2e2e62;}.cls-8{fill:#f9f9f9;}.cls-9{fill:none;stroke:#f9f9f9;stroke-miterlimit:10;stroke-width:2px;}</style></defs><title>BB female</title><g id="Layer_2" data-name="Layer 2"><g id="Layer_1-2" data-name="Layer 1"><g id="BB_female" data-name="BB female"><g id="Ill"><path class="cls-1" d="M134.53,45.63S126.47,7.35,169.07,1.32c61.43-8.7,66,28.52,66,28.52s19.59,56.07,49.56,70.09c27.56,12.89,72.51,122.78,72.51,122.78l-44.95,2.9-57.53-64.42-69.78-24.52Z"/><g id="Body"><path class="cls-2" d="M190.87,512.19s21.25,69.9,43.71,138.55c0,0-5.74-80,14.83-132.73Z"/><polygon class="cls-3" points="133.48 137.17 150.03 120.11 212.07 120.11 212.07 170.88 133.48 170.88 133.48 137.17"/><g id="Arms"><path class="cls-2" d="M115.91,137,76.69,188.52l-18.15,70L16.28,379.43s88.37-64,102.17-199.26Z"/><g id="Arm_1" data-name="Arm 1"><path class="cls-2" d="M237.08,114.7s65.15,25.21,103.79,129c0,0,28.36,48.77,26.42,117.73l-46.16-90-48.82-80.83-35.23-19.71Z"/><path class="cls-2" d="M16.92,379.08,0,402.85l11.52,36.06,4.76-35S28.8,393.31,16.92,379.08Z"/></g></g></g><circle class="cls-4" cx="389.43" cy="371.54" r="57.84"/><g id="kit"><path class="cls-5" d="M145.07,371.44S125.83,434.31,190.2,500.6c26.44,27.23,16.51-129.9,20.8-129.16Z"/><polygon class="cls-6" points="234.58 650.75 190.01 682.78 260.1 682.78 234.58 650.75"/><path class="cls-7" d="M295.66,372s-24,111-22.38,148.42l-81.48-7.58s3.17-112.61,17-141.15Z"/><polygon class="cls-7" points="295.66 371.97 237.08 170.88 117.16 170.88 144.93 371.44 295.66 371.97"/><polygon class="cls-7" points="116 137.17 133.48 137.17 133.48 170.88 117.16 170.88 116 137.17"/><rect class="cls-7" x="212.07" y="114.7" width="25.01" height="56.17"/><polygon class="cls-6" points="274.82 517.29 309.42 495.27 293.87 560.86 274.82 517.29"/><circle class="cls-8" cx="184.88" cy="248.7" r="24.92"/></g><g id="head"><polygon class="cls-2" points="203.62 124.1 203.62 64.6 195.62 57.95 191.34 47.72 183.13 40.47 134.53 45.63 142.36 127.51 169.07 139.91 203.62 124.1"/></g></g><circle class="cls-9" cx="184.88" cy="248.7" r="30.95"/></g></g></g></svg>