<svg xmlns="http://www.w3.org/2000/svg" viewBox="0 0 836.1 487.84"><defs><style>.cls-1{fill:#edbf9b;}.cls-2{fill:#62faed;}.cls-3{fill:#2e2e62;}.cls-4,.cls-7{fill:#fff;}.cls-5{fill:#e1a290;}.cls-6{fill:#2e3061;}.cls-7{stroke:#424242;stroke-miterlimit:10;stroke-width:0.25px;}</style></defs><title>Asset 24</title><g id="Layer_2" data-name="Layer 2"><g id="Layer_1-2" data-name="Layer 1"><g id="Football_female" data-name="Football female"><g id="Flesh"><g id="Head"><path d="M173,104s-13.85-22.67-39.4-21.45c0,0-27.41-3.65-43.21,32.86,0,0-11.26,24-11.87,42.29-.27,8.09-9.55,26.14-19.8,43.74C45.84,223.6,0,268.26,0,268.26s49.69-8.34,76.09-8.16c18.57.12,30.13-5.48,30.13-5.48l39.88-87.78Z"/></g><g id="Arms"><g id="Arm_1" data-name="Arm 1"><path class="cls-1" d="M209.82,153.15l157-51.12s-53.58,45.94-157,93.11Z"/><path class="cls-1" d="M366.82,102,351.61,72.82l15.21-31.64V63.69S390,81.34,366.82,102Z"/></g><g id="arm_2" data-name="arm 2"><path class="cls-1" d="M106.22,271.81V451.63s33.62-99.49,35.44-122.92l8.22-56.9Z"/><path class="cls-1" d="M106.22,451.63v24.95s7.15,11.26,23.88,11.26,24-11.56,24-11.56h-21.6l-14.91-13.69,7.3-11Z"/></g></g><g id="Knees"><path class="cls-1" d="M349.48,320.49l45.94,13.7L443.5,349.7s-27.69,50.51-93.72,42.9Z"/><path class="cls-1" d="M371.39,243.21l-76.68-24.65s94.32-42.9,139.66-45.64v45.64H407.9Z"/></g></g><g id="Kit"><path class="cls-2" d="M264.28,230.74l30.43-12.18,76.68,24.65L289.84,299.8l59.64,20.69.3,72.11s-18.25-.6-85.5-25.55Z"/><polygon class="cls-3" points="106.22 201.45 106.22 271.81 149.88 271.81 141.66 328.71 264.28 367.05 264.28 230.74 209.52 213.7 209.82 153.15 172.62 166.23 153.53 168.97 139.42 180.23 133.75 185.48 124.93 194.22 106.22 201.45"/><polygon class="cls-2" points="106.22 180.23 106.22 201.45 172.62 201.45 106.22 180.23"/><g id="Socks"><g id="Sock_2" data-name="Sock 2"><path class="cls-2" d="M434.37,218.56V172.92s68.15-9.43,193.82,45.64Z"/><polygon class="cls-4" points="449.28 172.93 449.28 218.56 460.84 218.56 460.84 172.74 449.28 172.32 449.28 172.93"/></g><polygon class="cls-2" points="481.83 260.86 443.5 349.7 395.42 334.19 481.83 260.86"/><polygon class="cls-4" points="420.05 313.29 454.17 324.98 449.69 335.35 409.86 321.93 420.05 313.29"/></g><polygon id="Boot" class="cls-3" points="481.83 260.86 469.66 237.73 539.95 237.73 481.83 260.86"/></g><path class="cls-1" d="M130,126.14V104h42.9v27.84l8.67,18.71-8.9,3.42v31.5l-66.4-22.37,11-13.23S102.86,138,108.5,126.37C115.12,112.68,130,126.14,130,126.14Z"/><polygon class="cls-5" points="172.62 185.48 172.62 201.45 106.22 180.23 106.22 163.11 172.62 185.48"/><g id="Decor"><circle class="cls-6" cx="329.4" cy="367.05" r="12.32"/><circle class="cls-4" cx="126.78" cy="249.85" r="12.32"/></g></g><g id="Football"><circle class="cls-4" cx="794.92" cy="41.18" r="41.18"/><g id="white"><polygon class="cls-7" points="774.77 13.92 773.17 26.52 790.03 26.52 774.77 13.92"/><polygon class="cls-7" points="811.15 20.22 806.18 33.09 823.22 30.61 811.15 20.22"/><polygon class="cls-7" points="792.87 41.18 792.87 58.12 802.63 53.68 792.87 41.18"/><polygon class="cls-7" points="769.44 44.27 759.33 57.05 777.61 63.09 769.44 44.27"/><polygon class="cls-7" points="817.19 53.68 816.12 64.33 826.95 59.01 817.19 53.68"/><polygon class="cls-7" points="808.31 41.18 808.31 44.98 816.12 43.08 808.31 41.18"/><polygon class="cls-7" points="794.92 6.65 794.12 10.2 801.39 9.49 794.92 6.65"/><polygon class="cls-7" points="783.11 33.09 781.6 39.3 790.03 39.3 783.11 33.09"/><polygon class="cls-7" points="766.07 32.2 773.17 35.4 764.3 39.3 766.07 32.2"/></g><g id="Black"><polygon points="784.18 16.41 779.38 22.98 792.87 23.86 784.18 16.41"/><polygon points="807.6 23.86 813.28 35.75 802.63 37.35 807.6 23.86"/><polygon points="784.35 37.35 797.75 28.66 794.92 46.23 784.35 37.35"/><polygon points="771.4 56.34 783.11 56.34 780.63 67.7 771.4 56.34"/><polygon points="797.75 65.57 796.42 73.91 807.96 70.54 797.75 65.57"/><polygon points="813.28 39.3 810.44 49.65 823.22 46.23 813.28 39.3"/><polygon points="813.28 8.72 809.38 16.41 818.61 16.41 813.28 8.72"/><polygon points="765.89 20.14 761.46 26.52 771.4 25.82 765.89 20.14"/></g></g></g></g></svg>