<svg xmlns="http://www.w3.org/2000/svg" viewBox="0 0 571.01 602.83"><defs><style>.cls-1{fill:#2f2d5e;}.cls-2{fill:#963558;}.cls-3{fill:#f7f5e6;}.cls-4{fill:#e8b596;}.cls-5{fill:#dc988d;}.cls-6{fill:#efc99c;}.cls-7{fill:#f5f6e8;}.cls-8,.cls-9{fill:#fff;}.cls-9{stroke:#424242;stroke-miterlimit:10;stroke-width:0.25px;}</style></defs><title>Asset 25</title><g id="Layer_2" data-name="Layer 2"><g id="Layer_1-2" data-name="Layer 1"><g id="Football_Male" data-name="Football Male"><g id="Kit"><polygon class="cls-1" points="195.45 83.61 281.79 83.61 281.79 107.85 342.11 107.85 342.11 83.61 384.69 83.61 427.27 107.85 409.53 136.83 385.28 128.55 328.85 128.55 312.54 136.83 288.3 127.96 240.39 123.23 195.45 118.5 195.45 83.61"/><g id="Vest"><polygon class="cls-2" points="240.94 83.61 240.94 295.32 385.23 295.32 385.23 83.61 365.12 83.61 365.12 107.85 342.65 107.85 313.08 130.91 282.33 107.85 262.23 107.85 262.23 83.61 240.94 83.61"/><path class="cls-1" d="M338.53,133.87h28.16V151s-1.16,14.81-14.08,14.81-14.08-14.52-14.08-14.52Z"/></g><g id="Sock_2" data-name="Sock 2"><polygon class="cls-1" points="463.93 361.55 509.47 314.04 509.47 401.76 463.93 361.55"/><polygon class="cls-2" points="471.02 354.16 509.47 386.98 509.47 373.38 478.7 346.14 471.02 354.16"/></g><path class="cls-1" d="M325,490.47l77.47,91.07S384.1,468.59,367,450.85Z"/><polygon class="cls-2" points="333.15 500.1 373.91 462.74 378.52 475.03 341.04 509.38 333.15 500.1"/><g id="Shorts"><path class="cls-1" d="M240.94,295.32H385.23L461.52,361,421.9,399.4l-70.67-30.16L348,407.09l-41.39-19.52L277.6,413S243.3,368.65,240.94,295.32Z"/><path class="cls-3" d="M256.56,376.05l13.94-5.92,5.33,13.3s5.25,10.45-5.41,20.59c-2.58-4.76-3.35-4.57-8-14.84Q259.21,382.43,256.56,376.05Z"/></g></g><g id="Flesh"><g id="Knees"><path class="cls-4" d="M347.43,407.09v24.24s18.93,15.31,19.52,19.52l-42,39.62s-45.24-62.54-47.9-77.47l29-25.43Z"/><path class="cls-4" d="M421.35,399.4s41.1,28,88.12,2.36l-45.54-40.21L461,361Z"/></g><path class="cls-4" d="M195.45,83.61H57.51s20.85,16.55,137.94,34.89Z"/><path class="cls-4" d="M37.11,55.22l20.4,28.39s-33.26,12.27-38-19.82L0,51.23Z"/><g id="Arm_2" data-name="Arm 2"><path class="cls-4" d="M427.27,107.85,542,177.34s-76.58-13-132.46-40.51Z"/><path class="cls-4" d="M542,177.34l29,17.59-15.08,26.5-4.21-14.19S524.66,199.39,542,177.34Z"/></g><g id="Head"><g id="Neck"><polygon class="cls-5" points="313.08 107.85 342.65 107.85 342.92 73.85 313.08 107.85"/><polygon class="cls-6" points="312.22 107.85 282.65 107.85 282.38 73.85 312.22 107.85"/></g><g id="Ears"><path class="cls-6" d="M282.38,68.3s-13.53-16.41-9.09-28.38c0,0,5.54-6,9.09,3.55S282.38,68.3,282.38,68.3Z"/><path class="cls-5" d="M343,67.05s14.42-14,10-26c0,0-3.2-8.21-10,1.19C337.06,50.47,343,67.05,343,67.05Z"/></g><polygon id="Face" class="cls-6" points="282.38 31.93 282.38 80.72 313.08 107.85 342.93 74.96 342.65 31.93 338.49 18.41 330.5 14.64 315.65 14.64 301.45 13.08 294.8 15.52 289.48 18.41 282.38 31.93"/><path id="Hair" class="cls-1" d="M282.38,31.93S282.13,2,313.08,0c0,0,29.84,0,29.84,31.93,0,0-8-14.41-14.07-12.41,0,0,0,15.08-15.77,17.29,0,0-16.28,0-13.84-17.17C299.24,19.64,293.91,16.85,282.38,31.93Z"/></g></g><g id="Shoes"><polygon class="cls-7" points="402.43 581.54 363.69 602.83 422.83 602.83 402.43 581.54"/><polygon class="cls-7" points="509.47 314.04 509.47 339.97 553.6 339.97 509.47 314.04"/></g></g><g id="Football"><circle class="cls-8" cx="468.29" cy="508.67" r="32.48"/><g id="white"><polygon class="cls-9" points="452.39 487.17 451.13 497.11 464.43 497.11 452.39 487.17"/><polygon class="cls-9" points="481.09 492.14 477.17 502.29 490.61 500.33 481.09 492.14"/><polygon class="cls-9" points="466.67 508.67 466.67 522.03 474.37 518.53 466.67 508.67"/><polygon class="cls-9" points="448.19 511.11 440.21 521.19 454.63 525.95 448.19 511.11"/><polygon class="cls-9" points="485.85 518.53 485.01 526.93 493.55 522.73 485.85 518.53"/><polygon class="cls-9" points="478.85 508.67 478.85 511.67 485.01 510.17 478.85 508.67"/><polygon class="cls-9" points="468.29 481.43 467.65 484.23 473.39 483.67 468.29 481.43"/><polygon class="cls-9" points="458.97 502.29 457.78 507.19 464.43 507.19 458.97 502.29"/><polygon class="cls-9" points="445.53 501.59 451.13 504.11 444.13 507.19 445.53 501.59"/></g><g id="Black"><polygon points="459.81 489.13 456.03 494.31 466.67 495.01 459.81 489.13"/><polygon points="478.29 495.01 482.77 504.39 474.37 505.65 478.29 495.01"/><polygon points="459.95 505.65 470.52 498.79 468.29 512.65 459.95 505.65"/><polygon points="449.73 520.63 458.97 520.63 457.01 529.59 449.73 520.63"/><polygon points="470.52 527.91 469.47 534.49 478.57 531.83 470.52 527.91"/><polygon points="482.77 507.19 480.53 515.35 490.61 512.65 482.77 507.19"/><polygon points="482.77 483.06 479.69 489.13 486.97 489.13 482.77 483.06"/><polygon points="445.39 492.07 441.89 497.11 449.73 496.55 445.39 492.07"/></g></g></g></g></svg>