<svg xmlns="http://www.w3.org/2000/svg" viewBox="0 0 497.03 738.88"><defs><style>.cls-1{fill:#f6db8c;}.cls-2{fill:#c3e6f9;}.cls-3{fill:#1d206f;}.cls-4{fill:#101151;}.cls-5{fill:#c8ffff;}.cls-6{fill:#d62b58;}.cls-7{fill:#fff;}</style></defs><title>Squash</title><g id="Layer_2" data-name="Layer 2"><g id="Layer_1-2" data-name="Layer 1"><g id="Squash"><g id="ill"><path class="cls-1" d="M176.86,116.77l17.6-7.87-8.8-53.43,55.81-41.63s31.89,42.87,24.44,110.59l-29.41,9.73L224.08,154Z"/><path class="cls-2" d="M123.84,255.1l-58-12.42,24.85-77s12.42-29,33.13-29l53-19.88L224.08,154l12.42-19.88s39.76,38.11,40.59,90.29l-35.62,11.6L222.42,382.67,75,367.76Z"/><polygon class="cls-3" points="150.35 546.41 173.54 453.92 227.84 519.18 288.58 495.3 222.42 382.68 74.97 367.76 82.92 532.58 150.35 546.41"/><path class="cls-1" d="M75,244.63,57.57,294S40.18,333,141.24,382.67L209.16,420l-87.8-104.37S99,294,123.84,255.1Z"/><path class="cls-1" d="M241.47,236.05s-1.66,103.55,87,120.12L287.3,303.4l-10.21-78.95Z"/><path class="cls-4" d="M244.78,18.92S229.64-11.14,192,4.52C143.05,24.87,159.51,63.7,159.51,63.7L189.86,111l4.6-2.06-3.85-23.39S194.5,56.36,201,56c14.42-.85,16.47,20.61,16.47,20.61h6.37S220.87,32.63,244.78,18.92Z"/><path class="cls-5" d="M166.62,414.09l55.56-29.36L250.11,370c2.31-1.24,4.72-2.44,6.95-3.71s4.48-2.66,6.68-4.05q6.61-4.17,12.95-8.76a190.25,190.25,0,0,0,23.79-20.15,112.78,112.78,0,0,0,10.14-11.73,70.45,70.45,0,0,0,7.88-13.16c1-2.3,2-4.8,3-7.24s2.14-4.83,3.2-7.25c2.32-4.75,4.71-9.47,7.43-14a153.8,153.8,0,0,1,18.67-25.67c.47-.51.88-1,1.47-1.52s1-.9,1.52-1.34c1-.87,2-1.71,3.09-2.54,2.08-1.65,4.22-3.24,6.42-4.74a108,108,0,0,1,13.79-8.1,79,79,0,0,1,15.09-5.61,53.76,53.76,0,0,1,16.21-1.67,42.45,42.45,0,0,1,15.95,4,49.92,49.92,0,0,1,13.32,9.5A58.77,58.77,0,0,1,447.78,255a48.9,48.9,0,0,1,5.82,15.39,51.92,51.92,0,0,1,.45,16.45,61.35,61.35,0,0,1-4.29,15.8c-.53,1.26-1.11,2.5-1.73,3.74a27.55,27.55,0,0,1-2.22,3.74,38.28,38.28,0,0,1-5.79,6.17,65,65,0,0,1-13.73,8.95c-9.75,4.84-20.23,7.65-30.74,9.47a189.67,189.67,0,0,1-31.79,2.48h-.26c-.35,0-.92,0-1.4,0s-1,0-1.54,0c-1,0-2.09.1-3.14.2s-2.1.19-3.16.34-2.1.29-3.16.48a101.45,101.45,0,0,0-12.52,2.94c-2.07.57-4.1,1.32-6.16,2s-4.06,1.48-6.06,2.3c-4,1.61-8,3.37-11.87,5.31s-7.84,3.94-11.8,5.9l-11.86,5.9-23.76,11.71c-15.83,7.82-31.74,15.48-47.61,23.23l-11.91,5.8-12,5.72L171.7,420.4l-.38.19-.24-.33C169.52,418.19,168.05,416.08,166.62,414.09Zm.59.13c1.61,1.87,3.18,3.63,4.66,5.42l-.62-.14L194.59,407l11.68-6.24L218,394.58c15.63-8.2,31.21-16.49,46.88-24.62l47-24.42a144.88,144.88,0,0,1,25-10.21,109.22,109.22,0,0,1,13.22-3.18c1.12-.21,2.25-.38,3.39-.52s2.27-.28,3.42-.4,2.3-.18,3.47-.22c.59,0,1.16-.05,1.77,0s1.15,0,1.9,0h-.26a202.61,202.61,0,0,0,30.79-2.28c10.11-1.67,20.09-4.3,29.2-8.66a59.48,59.48,0,0,0,12.63-8,32.57,32.57,0,0,0,5-5.18,22.53,22.53,0,0,0,1.82-3c.57-1.1,1.11-2.22,1.6-3.37,4-9.16,5.66-19.44,3.89-29.21a44.14,44.14,0,0,0-5.07-13.92,53.9,53.9,0,0,0-9.24-11.82,45.59,45.59,0,0,0-12-8.79A38.19,38.19,0,0,0,408.08,233a49.73,49.73,0,0,0-14.94,1.4,74.9,74.9,0,0,0-14.35,5.19,102.9,102.9,0,0,0-13.35,7.67c-2.14,1.43-4.23,2.95-6.26,4.52-1,.79-2,1.6-3,2.42-.48.42-1,.83-1.44,1.25s-.85.84-1.27,1.29A151,151,0,0,0,335,281.65c-2.71,4.43-5.1,9-7.42,13.67-1.07,2.36-2.23,4.69-3.21,7.09s-2,4.77-3.07,7.27a71.4,71.4,0,0,1-8.37,13.64,114.76,114.76,0,0,1-10.55,11.88A192.69,192.69,0,0,1,278,355.3c-4.3,3-8.7,5.92-13.18,8.66-2.24,1.38-4.5,2.72-6.8,4s-4.64,2.39-7,3.59l-27.85,14.17Z"/><circle class="cls-6" cx="485.22" cy="139.96" r="11.8"/><path class="cls-1" d="M82.91,532.58s-34.5,68.89-44.39,133L150.35,546.41Z"/><path class="cls-1" d="M288.58,495.3,277.09,665.57s-42.81-101.49-49.25-146.39Z"/><polygon class="cls-7" points="38.52 665.57 0 674.26 56.43 738.88 38.52 665.57"/><polygon class="cls-7" points="277.09 665.57 256.15 694.14 333.01 694.14 277.09 665.57"/></g></g></g></g></svg>