<svg xmlns="http://www.w3.org/2000/svg" viewBox="0 0 498.68 688"><defs><style>.cls-1{fill:#2c2c6d;}.cls-2{fill:#ec7ea6;}.cls-3{fill:#fff;}.cls-4{fill:#4e7ec1;}.cls-5{fill:#ff2449;}.cls-6{fill:#050554;}.cls-7{fill:#ffb845;}</style></defs><title>TT</title><g id="Layer_2" data-name="Layer 2"><g id="Layer_1-2" data-name="Layer 1"><g id="TT"><g id="Ill"><polygon class="cls-1" points="121.41 351.11 135.49 462.64 201.24 462.64 210.63 406.88 234.69 462.64 299.85 462.64 256.41 351.11 121.41 351.11"/><path class="cls-2" d="M135.49,462.64l7.63,58.11L103.5,664.86l73.62-108.33s24.86-34,24.12-93.89Z"/><path class="cls-2" d="M234.69,462.64l22.16,46.23,14.22,151.22S328,556,299.85,462.64Z"/><polygon class="cls-3" points="103.47 665.11 77.06 688 148.08 688 103.47 665.11"/><polygon class="cls-3" points="270.98 659.37 252.78 684.61 322.63 684.61 270.98 659.37"/><polygon class="cls-4" points="157.8 210.24 121.41 351.11 259.93 351.11 313.94 172.67 313.94 112.02 202.02 112.02 147.23 154.28 147.23 209.85 157.8 210.24"/><g id="TT_racquet" data-name="TT racquet"><path class="cls-1" d="M6.49,304,0,313.91l33.73,22.47a11.19,11.19,0,0,1,3.67,8.2c0,5.21,15.28-13.15,15.28-13.15l-3.57-5.62s-4.8,3.09-7.17,1.2Z"/><path class="cls-5" d="M123,383c-13.11,22.06-36.1,17.27-58.06,3.24s-36.24-34.32-21.48-54C60,310.19,79.54,315,101.51,329S137.33,358.91,123,383Z"/></g><path class="cls-2" d="M313.94,172.67,322.55,274l119-8.61L313.94,304.55s-24.21-5.85-25.41-47.93Z"/><path class="cls-2" d="M441.51,265.41s11.74,20.35,39.91,11l14.87-37.76-25.82,25Z"/><path class="cls-2" d="M147.23,154.28,94.4,194.19S58,216.11,47.84,253.67l-21.13,83,77.48-105.07,43-21.72Z"/><g id="head"><path class="cls-2" d="M340.19,60.46s5.28,47.84-47.49,60.64c0,0-44.08,0-47.6-49.49C241.37,19.24,340.19,60.46,340.19,60.46Z"/><path class="cls-6" d="M259.43,106.87S270,88.63,260.65,57.82l3.88-2.06h9.92V77.19s13.2,4.11,15-19.08l15-3.81,15.56,2.64,20.4-1.47L345.18,52s28.76-12.62,26.41-31.7c0,0-14.09,10.27-27.29,2.06L364,0s-20.38,4.66-80.71,7.34c0,0-25.24-1.47-38.26,41.09C234.55,82.57,259.43,106.87,259.43,106.87Z"/><rect class="cls-4" x="242.43" y="48.43" width="109.2" height="13.79"/></g><circle class="cls-7" cx="492.56" cy="158.78" r="6.13"/></g></g></g></g></svg>