<svg xmlns="http://www.w3.org/2000/svg" viewBox="0 0 612.45 790.07"><defs><style>.cls-1{fill:#fb941e;}.cls-2{fill:#28aae4;}.cls-3{fill:#005c85;}.cls-4{fill:#fff;}.cls-5{fill:#fcdf17;}.cls-6{fill:#0c4e7e;}.cls-7{fill:#fffffd;}</style></defs><title>vb</title><g id="Layer_2" data-name="Layer 2"><g id="Layer_1-2" data-name="Layer 1"><g id="vb"><g id="Illustr"><path d="M330.83,167l33.3-2s28.32,2,40.47,29.95c0,0,8.25,23.44,7.38,32.12l-24.3-4.34s-7.61,31.9-23.55,43.94-40.26-1.84-40.26-1.84l8.68-49.48,1.74-29.08Z"/><path class="cls-1" d="M347.47,213.84l15.61-16.64L330.83,167,311.2,187.88,295.52,198l.25,6.73-22.2,23.67,65.68,30,1.1-17.67s19.1,1.19,23.09-11.55C368.11,214.18,347.47,213.84,347.47,213.84Z"/><polygon class="cls-2" points="218.72 287.4 218.72 467.09 362.05 467.09 362.05 317.35 393.3 336.88 411.53 289.48 197.99 181.41 197.99 235.32 218.72 243.13 218.72 287.4"/><polyline class="cls-3" points="218.72 465.75 218.72 562.1 286.63 562.1 294.96 524.82 298.69 562.1 364.75 562.1 362.05 465.75"/><path class="cls-1" d="M218.64,562.21s0,58.59,35.51,135.65c0,0,23.08,47.94,37.5,62.26L276.12,654.65l10.42-92.44Z"/><path class="cls-1" d="M298.5,562.21s37.41,99.06,131.16,112.08c0,0,58.59,1.31,83.33-20.83L393.52,637.22l-28.86-75Z"/><polygon class="cls-4" points="513.1 654.65 537.84 700.23 544.35 633.82 513.1 654.65"/><polygon class="cls-4" points="291.65 760.12 255.15 790.07 315.19 790.07 291.65 760.12"/><polygon class="cls-1" points="197.99 181.41 56.01 112.93 197.99 235.32 197.99 181.41"/><path class="cls-1" d="M56.2,112.74,26.49,102.3,0,122.37l23.28-4.81S37.73,128.8,56.2,112.74Z"/><path class="cls-1" d="M411.53,289.48l62.59,37,92.29-58.08-73.82,84.32s-51,29.74-99.29-15.83Z"/><polygon class="cls-1" points="561.9 272.05 612.46 256.09 598.07 228.78 561.9 272.05"/><g id="Volleyball"><circle class="cls-5" cx="273.63" cy="41.71" r="41.71"/><polygon class="cls-6" points="265.81 9.37 254.46 17.06 277.88 24.74 265.81 9.37"/><polygon class="cls-7" points="259.58 49.99 277.88 56.94 286.3 47.06 259.58 49.99"/><polygon class="cls-7" points="282.09 31.1 300.38 38.05 308.8 28.18 282.09 31.1"/><polygon class="cls-6" points="286.3 22.54 297.64 33.16 281.17 38.1 286.3 22.54"/><polygon class="cls-6" points="287.89 7.99 291.97 11.8 286.05 13.58 287.89 7.99"/><polygon class="cls-6" points="293.98 58.77 281.17 65.36 286.3 74.14 293.98 58.77"/><polygon class="cls-6" points="262.51 66.45 250.07 68.28 262.51 75.6 262.51 66.45"/><polygon class="cls-6" points="262.51 40.11 272.94 58.77 256.29 58.77 262.51 40.11"/><polygon class="cls-7" points="273.63 34.62 266.17 17.06 281.17 17.06 273.63 34.62"/><polygon class="cls-6" points="244.58 20.35 238.36 34.62 259.58 30.96 244.58 20.35"/><polygon class="cls-7" points="302.4 41.71 291.97 45.23 300.93 55.11 302.4 41.71"/></g></g></g></g></g></svg>