<?xml version="1.0" encoding="utf-8"?>
<!-- Generator: Adobe Illustrator 19.0.0, SVG Export Plug-In . SVG Version: 6.00 Build 0)  -->
<svg version="1.1" id="Layer_1" xmlns="http://www.w3.org/2000/svg" xmlns:xlink="http://www.w3.org/1999/xlink" x="0px" y="0px"
	 viewBox="420 1906.1 1920 209.9" style="enable-background:new 420 1906.1 1920 209.9;" xml:space="preserve">
<style type="text/css">
	.st0{fill:#FDFDFD;}
</style>
<rect id="XMLID_23_" x="449.8" y="2086" class="st0" width="30.1" height="30"/>
<rect id="XMLID_22_" x="570" y="2056" class="st0" width="30.2" height="30"/>
<polygon id="XMLID_21_" class="st0" points="419.9,2055.6 419.9,2086 449.8,2086 449.8,2056 "/>
<polygon id="XMLID_20_" class="st0" points="540,2026 540,2056 570,2056 570,2026.1 "/>
<polygon id="XMLID_19_" class="st0" points="1140.5,2056.1 1140.5,2086 1170.5,2086 1170.5,2056.1 "/>
<polygon id="XMLID_18_" class="st0" points="2281.4,2116 2311.4,2116 2311.4,2086 2281.4,2085.7 "/>
<rect id="XMLID_16_" x="900.3" y="2086" class="st0" width="30" height="30"/>
<path id="XMLID_3_" class="st0" d="M2340,1995.9v-89.8h-59v29.5h-29.9v-29.5H509.7v29.5h-29.9v-29.5h-59.9V2026l29.9,0.2v29.8h30.1
	v30H510v-60h30v-30h30v30.1l30.2-0.1v30h30.1v30h29.9v-60h30v-29.9h29.9v29.9h-29.9v30h30.1v30h60v-30h29.9v-30h-30v-29.9h29.9v29.9
	h30v30h30.1v30h29.9v-60h30v30h30.1v30h30v-30h30v-30h30v30h30v-30.2h30.2v30.2h30v-29.8l30-0.1v29.9l60.1,0.3v-30.1h30v60.1l30,0.1
	V2056h30v-30l30.1-0.1v30l30,0.3v29.8l30,0.1v-30l-30-0.2v-30h60.1v29.9h30v30.2h30.2l-0.1-30.1h-29.9V2026h29.9v29.9h30.1l0.2-29.9
	h29.9v60.4h30.2v-30.5h30v-29.8h29.9v29.9h30.2v30.3h29.8v-30.2h29.9v-29.6h29.9v29.9h30v29.7h30V2056h-29.5v-29.9h29.9v29.7h29.5
	v30h30v-59.9h29.9v30h29.9v29.9h30V2026h30.7v30.1l60-0.1v29.9l30,0.1v-30h30.1l-0.1-29.8l30.1-0.1l0.1,29.8l30,0.1v29.9l30.1,0.1
	v30h30v-30l-30-0.3v-29.9l60,0.2v-29.9h29.9l0.1,59.9l28.5-0.3v-59.9h-28.5v-29.9H2340z M479.8,1995.9h-30V1966h29.9L479.8,1995.9z
	 M780.2,2055.8h-29.9v-29.9h29.9V2055.8z M870.2,1996h-29.9v-29.9h29.9V1996z M1020.2,2025.9h-29.9V1996h29.9V2025.9z
	 M1200.5,2025.8h-29.9v-29.9h29.9V2025.8z M1320.5,1995.9h-29.9V1966h29.9V1995.9z M1470.7,2025.8h-29.9v-29.9h29.9V2025.8z
	 M1620.7,2025.9h-29.9V1996h29.9V2025.9z M1861.2,2025.7h-29.9v-29.9h29.9V2025.7z M1981,1995.9h-29.9V1966h29.9V1995.9z
	 M2131.2,2026h-29.9v-29.9h29.9V2026z"/>
</svg>
