<?xml version="1.0" encoding="utf-8"?>
<!-- Generator: Adobe Illustrator 21.1.0, SVG Export Plug-In . SVG Version: 6.00 Build 0)  -->
<svg version="1.1" id="Layer_1" xmlns="http://www.w3.org/2000/svg" xmlns:xlink="http://www.w3.org/1999/xlink" x="0px" y="0px"
	 viewBox="0 0 468.5 312.9" style="enable-background:new 0 0 468.5 312.9;" xml:space="preserve">
<style type="text/css">
	.st0{fill:#90D2D0;}
	.st1{fill:#FDF4D3;}
	.st2{fill:#B5915F;}
	.st3{fill:#404857;}
	.st4{fill:#17191E;}
	.st5{fill:none;}
	.st6{fill:#16181B;}
	.st7{display:none;}
	.st8{display:inline;}
	.st9{clip-path:url(#SVGID_2_);}
</style>
<g id="Layer_1_1_">
</g>
<g id="Layer_3">
	<rect x="106.3" y="0.1" class="st0" width="210.8" height="132.5"/>
	<polygon class="st1" points="328.4,0.1 187.1,93.5 136,147.5 136,199 468.5,275.7 468.5,0.1 	"/>
	<path class="st2" d="M196,175.6c13.3,4,21,6.6,39.5,15.2s12.3,4.7,2.4,0s-19.8-9-34.7-14.2C188.5,171.3,196,175.6,196,175.6z"/>
	<path class="st3" d="M381.6,94.7c-5.1-1-6.1-1-9.7-0.5s-23.7,3.3-23.7,3.3l-1.6-97.4h-7.5L339,103.3l-0.1-4.1l-3.6,1.5
		c-0.7,0.3-1.6,0.5-2.7,0.8C332.4,90.3,332,61,332,59.2c0-2.2-0.6-3.8-2.9-2.6s-7.9,4.1-8.8,4.5c-1,0.4-1.1,1.1-1.1,2.6
		c0,1.5,1,30.2,1.4,41l0,0c-1.3,0.3-2.6,0.7-3.7,1c0.1,0,0.1,0,0.2-0.1c-0.3-10-1.5-39.9-1.5-40.8c0-1-0.3-1.5-1.7-0.7
		c-1.4,0.8-8.3,4.3-8.3,4.3c-0.9,0.4-1.2,1.2-1.1,3.1c0.1,1.8,1,34.8,1,39.6l0,0c-2,1.4-3.7,2.9-5,4.7c-3.6,4.8-5.9,7.6-5.9,7.6
		s-7.8,9.4-8.3,9.8c-1.6,2.5-4.2,5.9-5.8,8.5c-2.3,3.6-5.2,8.4-6.8,11.2c-1.4,2.5-5.2,10-5.2,10l0.5,8.7c0,0,0.6,9.2,0.7,11.6
		c0.1,0.1,2.7,7.5,2.7,7.5h-41.1H230c0,0-0.3,0.6-0.1,1c0,0.1,0.1,0.2,0.2,0.2l-11.6-5.8l-16.7-6.6l-1.6-0.6l-0.8-1.8
		c0,0,26.8,3,34.4,3.2c0.9,0,5.1-0.1,5.9-0.1c-0.2-0.8-4.1-0.9-4.8-1.1c-1.8-0.4-3.6-0.9-5.3-1.4c-2.7-0.7-5.4-1.5-8.1-2.3
		c-1.7-0.5-3.4-0.9-5.1-1.2c-3-0.5-5.9-1.1-8.9-1.7c-2.8-0.5-5.7-0.9-8.5-1.9c-0.5-0.2-1.2-0.1-1.8-0.2c-2.3-0.1-4.5-0.2-6.8-0.3
		c-0.3,0-0.7,0-1,0v-35.6h-2.7l-2.1-41L145,89.2h-0.1V0.1H0v312.7h468.5v-28.2v-11.8V112.3C444.8,107.5,385.7,95.5,381.6,94.7z
		 M227.6,194.6c-3.9-0.2-8.4-0.3-12.4-0.7c-13.9-1.3-39.1-1.8-53-2.5c-1.5-0.1-8.9-0.5-17.4-0.8V178c8,0,11.7,0.3,11.7,0.3
		c4.7,0.2,9.4,0.3,14.1,0.5c5.8,0.3,11.6,0.6,17.4,0.9c0.1,0,0.2,0,0.3,0h0.1c3.5,0.2,7,0.5,10.4,0.9c1.2,0.1,2.4,0.7,3.6,1.1
		c1.5,0.6,2.9,1.2,4.4,1.8l0,0c2.2,0.9,6,2.6,6,2.6c6.3,2.8,12.1,5.6,17.8,8.3C230.2,195,228.3,194.6,227.6,194.6z"/>
	<path class="st2" d="M269.8,183.2c0,0,0.5,5.1,0.5,7.5c-0.7-0.2-1.3-0.3-2-0.5c-6.3-2.1-12.5-4.2-18.8-6.3
		c-0.3-0.1-3.2-1.2-3.8-1.4c-2.3-0.7-6-2.3-6-2.3s-0.5-4.4-0.4-5.8c3,0.8,6.8,2,9.7,2.8c4.7,1.3,9.5,2.7,14.2,4.1
		C265.2,182,269.8,183.2,269.8,183.2z"/>
	<path class="st3" d="M205.4,34.6c-0.2-0.4-0.3-0.5-0.6-0.5s-1.7-0.1-2.6-0.1c-0.7,0-1,0.6-1.2,1.4l1.7,2.2l4.1-1.4
		C206.9,36.1,205.7,35,205.4,34.6z"/>
	<path class="st3" d="M204.9,35.4c6.4,0.1,12.5-0.8,12.5-0.8s2.2-15.1,2.2-16.2s0.2-1.1,1-1.1s1.4,0,1.9,0s0.8,0,1,0.7
		s0.6,1.4,0.6,1.4l16.4,0.6c0,0,2.1-4.3,3.8-11.3l36.5,0.7l-69.9,54.2l-0.5-19.8L204.9,35.4z"/>
	<polygon class="st3" points="199,58.9 196.8,56.7 204.5,47.5 201.5,35.1 204.1,35.1 214.9,44.5 216.3,44.9 216.1,59.8 205.2,68.3 	
		"/>
	<path class="st4" d="M63.5,2.4c1,1.1,2.6,1.4,3.9,1.7c2.4,0.6,4.6,1.7,6.9,2.4c3.1,1,6.2,2.1,9.3,3.2c3,1,6.1,1.8,9.1,2.9
		c1.7,0.6,3.3,1.2,5,1.3c0.5,0,0.9,0.2,1.4,0.4c2.8,0.9,5.5,2.1,8.3,2.7c4.5,0.9,8.7,2.7,13.1,3.9c4.1,1.1,8.1,2.6,12.1,4
		c3.3,1.1,6.6,2.2,9.9,3.2c0.7,0.2,1.6,0.2,2.3,0.3c0,1.5,0,3.1,0,4.6c-0.6,0-1.3,0.1-1.7-0.1c-2.5-1.3-5.4-1.6-8-2.5
		c-1.9-0.6-3.9-1.2-5.8-1.9c-4.1-1.4-8.3-2.5-12.5-3.8c-5.7-1.7-11.5-3.3-17.2-5.1c-5.5-1.6-10.8-3.6-16.3-5
		c-4.1-1.1-8.2-2.3-12.2-3.5c-2.1-0.6-4.3-1.2-6.5-1.6c-3.2-0.6-6.4-1.6-9.5-2.5c-2.3-0.6-4.7-1.2-7-1.8c-1.9-0.5-3.8-0.9-5.6-1.6
		c-1.1-0.4-2.1-0.4-3.1-0.6c-0.1-0.4-0.1-0.8-0.2-1.2c0.9-0.3,1.8-0.2,2.8,0s2.1,0.3,3.2,0.3C49.4,2,53.6,2,57.7,1.7
		C59.7,1.5,61.5,2.2,63.5,2.4z"/>
	<path class="st3" d="M410.4,1c0.1,0.5,0.1,1-0.5,1.2c-0.4,0.1-0.8,0.2-1.1,0.3c-0.4,0.1-0.9,0-1.1,0.3c-1,1.4-2.4,1.4-3.9,1.6
		c-1.4,0.2-2.6,0.8-3.5,2.3s-2.3,2.7-3.7,3.8c-1.1,0.8-1.9,1.6-2.1,3c0,0.2-0.2,0.3-0.4,0.6c-2.5,1.1-5.2,2.3-7.9,3.6
		c-4.7,2.3-9.7,3.8-14.5,5.6c-1.3,0.5-2.2-0.6-2.2-1.5c0-1.4,0.7-2.1,1.9-2.7c2.4-1.1,4.8-2.2,7.2-3.3c1-0.4,2-0.9,3-1.4
		c0.5-1.1,1-2.1,1.4-3.2c1.1-3,3-5.5,5.4-7.6c0.4-0.3,0.7-0.7,1-1c2.5-1.4,5.3-1.9,8.1-1.9C401.8,0.7,406.1,0.8,410.4,1z"/>
	<path class="st1" d="M249.1,190.8c-0.5-2.3-0.7-4.6-0.4-6.9c0.3,0,0.6,0,0.9,0.1c6.3,2.1,12.5,4.2,18.8,6.3c0.6,0.2,1.3,0.3,2,0.5
		c0.1,0.2,0.3,0.4,0.4,0.6c-4.9-0.2-9.9-0.4-14.8-0.5C253.6,190.7,251.3,190.8,249.1,190.8z"/>
	<path class="st2" d="M240.6,136.8c5.2-1.3,10.3-2.7,15.5-3.9c7.1-1.7,14.2-3.4,21.2-5.1c2.2-0.5,4.3-1.1,6.5-1.7
		c3.1-0.8,8.2-2.1,11.3-2.8c0.2,0-2.8,2.8-3.7,3.8c-1.5,2-5.2,6.2-5.2,6.2s-9.1,2-13.2,2.9c-2.6,0.5-5.1,1.2-7.7,1.7
		s-5.2,0.9-7.7,1.4c-2.6,0.5-5.1,1-7.7,1.5c-3.6,0.7-7.2,1.3-10.9,2c-0.3-1.8-0.3-5.3-0.3-5.3S240.1,136.9,240.6,136.8z"/>
	<path class="st3" d="M133.9,247.1c-1.1-6.1-0.2-11.9,0-17.8c0-0.7,0.3-1.3,0.5-1.9c0.3-1,0.6-2,0.9-3.1c0.2-0.7,0.5-1.3,1.6-1.1
		c0.1,0.3,0.2,0.7,0.2,1c-0.2,5.1-0.4,10.2-0.7,15.3c-0.1,1.7-0.8,3.4-0.9,5.2C135.4,245.5,134.9,246.3,133.9,247.1z"/>
	<path class="st2" d="M232.5,99.8c0,0-2.9,1.2-3.6,1.5c-5.5,2.5-11.1,5-16.6,7.4c-3.5,1.5-7.1,2.8-10.6,4.3c-2.4,1-7.2,3-9.5,4
		c-0.6,0.2-1.9-2.4-1.2-2.7c7.8-3.5,18.3-8.2,26.1-11.7c3.2-1.5,6.3-3.1,9.6-4.5c1.7-0.7,5.8-2.9,5.8-2.9"/>
	<path class="st3" d="M148.8,216.5c1.1,4.3,0.6,8.5,0.3,12.7c-0.1,1.6-0.6,3.2-1,4.8c-0.1,0.3-0.4,0.6-0.6,1
		c-0.3-1.9,0.2-16.5,0.6-18.2C148.2,216.7,148.5,216.6,148.8,216.5z"/>
	<path class="st3" d="M154.7,195.4c-0.5-0.2-0.7-0.5-0.1-1.1C154.7,194.7,154.7,195.1,154.7,195.4L154.7,195.4z"/>
	<polyline class="st3" points="193.1,145.5 191.8,114.2 191.2,95.2 231.1,66.6 232.9,61 227.8,54.6 227.8,48.8 225.6,55.6 
		178.6,91.1 179.1,111.6 192.7,145.8 	"/>
	<path class="st2" d="M233.4,144.2c-3.1,0.4-7.5,1-10.6,1.4c-2.3,0.3-5.1,0.7-7.4,1c-0.3-0.2-0.2-0.6-0.6-0.9c-1-1-1.9-2-2.9-3.1
		c0-0.2,0-0.4,0.1-0.6c6.7-1.2,14.3-2.5,21.2-3.7"/>
	<path class="st2" d="M227,58c-0.1,0-0.3-0.5-0.4-0.6c0-1.5,0.2-3,0.2-4.5c0-0.4,0-0.7,0.1-1.1c0.4-0.5,1-1,1.5-1.6
		c0.3,1.4,0.4,5.5,0.1,6.2C228.2,56.9,227.4,57.6,227,58z"/>
	<path class="st3" d="M235.9,173.8l-1,5.4l-46.8-7.4l-7.5-72.5c0,0.3,0.7,0.9,0.8,1.1c0.8,1.1,1.6,2.2,2.4,3.2
		c1.4,1.9,2.8,3.7,4.1,5.6c0.7,0.9,1.3,1.8,2,2.7c3.8,5.3,7.6,10.5,11.7,15.6c1.3,1.5,2.2,3.4,3.4,5c1.3,1.8,2.9,3.4,4.2,5.2
		c0.8,1.5,2.2,3.1,3.2,4.5c3.6,5.1,7.5,9.9,11.2,14.9C227.6,162.7,231.8,168.2,235.9,173.8L235.9,173.8"/>
	<path class="st3" d="M296.3,72.3c0.2,1.4,0.4,2.3,0.4,3.3c0.1,2.3,0.3,4.5,0.3,6.8c0.1,3.8,0.1,7.7,0.3,11.5
		c0.1,3.3,0.4,6.7,0.5,10c0,0.1,0,0.2,0,0.3c0.1,3.3,0.3,6.7,0.4,10c0,0.6,0,1.2-0.1,1.9c-3.2,1-6.4,1.7-9.7,2.5
		c-0.5,0.1-1,0.1-1.4,0.1c-0.2,0-0.3-0.2-0.7-0.4c-0.4-1.7-0.5-3.5-0.5-5.4c-0.1-4.3-0.1-8.6-0.2-13c-0.1-4.3-0.3-8.6-0.5-12.9
		c-0.1-2.5-0.3-4.9-0.2-7.4c0-1.5,0.4-2.9,2-3.6c2.3-1.1,4.6-2.3,6.9-3.4C294.6,72.4,295.3,72.4,296.3,72.3z"/>
	<path class="st3" d="M281.1,78.8c0.3,0.6,0.7,1.1,0.7,1.6c0.2,2.4,0.2,4.9,0.3,7.4c0.2,3.7,0.4,7.4,0.5,11.2
		c0.1,2.8,0.3,5.7,0.4,8.5c0.1,3.6,0.2,7.3,0.3,10.9c0,0.5,0,1,0,1.4c-2,1.2-8.6,2.9-10.7,2.9c-0.5-1.6-0.6-3.2-0.6-4.9
		c-0.1-6.7-0.3-13.4-0.5-20c-0.1-3.8-0.3-7.6-0.5-11.5c-0.1-1.2,0.4-2.1,1.2-2.9c0.3-0.3,0.6-0.5,1-0.7
		C275.9,81.4,278.4,80.1,281.1,78.8z"/>
	<path class="st3" d="M265.4,124c-2.7,0.8-5.2,1.6-7.6,2.2c-1.3,0.4-1.9-0.1-2-1.4c-0.1-1.9-0.2-3.7-0.3-5.6
		c-0.2-4.7-0.3-9.4-0.5-14.1c0-0.3,0-0.6,0-0.9c-0.1-3.5-0.2-7.1-0.2-10.6c0-0.7,0.1-1.4,0.1-2.1c2.4-1.5,4.9-2.8,7.5-3.9
		c0.3-0.1,0.8-0.1,1.1-0.1c0.9,1,0.9,2.2,0.9,3.4c0.2,6,0.4,11.9,0.5,17.9c0.1,2.3,0.2,4.7,0.3,7c0.1,2.2,0.2,4.3,0.3,6.5
		C265.5,122.9,265.4,123.4,265.4,124z"/>
	<path class="st3" d="M252.8,127.3c-2.5,0.9-5,1.8-7.5,2.6c-0.5,0.2-1.1,0.1-1.8,0.2c-0.6-1.5-0.8-3-0.8-4.6c0-4.4,0-8.8-0.1-13.3
		c-0.1-3.7-0.3-7.4-0.5-11.2c-0.2-4.5,0.8-4,3.1-5.2c2-1,3.9-2.2,6.2-2.7c1.1,3.9,0.4,7.7,0.8,11.5c0.4,3.7,0.3,7.4,0.3,11.2
		C252.6,119.6,253.3,123.4,252.8,127.3z"/>
	<path class="st3" d="M266.1,170.2c-2,0.3-2.9,0.2-5.5-0.6c-0.2-0.7-0.6-1.5-0.6-2.4c-0.3-4.8-0.5-9.6-0.7-14.3
		c-0.1-1.3-0.1-2.5,0.2-3.9c1.7,0,3.3-0.8,5.2-0.3c0.2,1.1,0.4,2.2,0.5,3.4c0.2,3.1,0.2,6.3,0.3,9.4
		C265.7,164.4,265.9,167.3,266.1,170.2z"/>
	<path class="st3" d="M250.3,149.9c1.5-0.7,3.1-0.9,5-0.6c0.2,1.1,0.5,2.1,0.4,3.1c-0.1,4.3-0.1,8.6,0.2,12.9c0.1,1-0.1,1.9-0.1,2.9
		c-0.8,0.6-1.5,0.3-2.3,0.1c-0.7-0.2-1.3-0.3-2-0.5C250.6,165.4,249.8,153.5,250.3,149.9z"/>
	<path class="st3" d="M248.5,166.4c-0.4,0.9-1.1,1.3-2.1,1.4c-1.8,0-2.7-0.8-2.9-2.6c-0.1-1.1-0.2-2.1-0.3-3.2
		c-0.1-3.5-0.6-7-0.3-10.5c0-0.2,0.1-0.4,0.2-0.6c1.2-0.7,2.5-0.9,4-0.6c0.9,2.6,0.7,5.3,0.8,8C248.1,161,248.4,163.7,248.5,166.4z"
		/>
	<path class="st3" d="M225,128.2c0-7.2-0.2-15.7-0.2-17.7c0-0.7,0.1-1.3,0.5-1.6c1.3-0.6,0.9-0.6,2.5-1.2c0.7-0.3,1.3-0.1,1.3,1.2
		c0,6.5,0.2,12.5,0.2,19c0,0.6,0.3,1.4-0.4,1.7c-0.5,0.2-2.6,0.7-2.8,0.7C224.9,130.5,225,130.1,225,128.2z"/>
	<path class="st3" d="M221.6,110.4c0.5-0.1,0.9-0.1,0.9,0.9c0.1,3.7,0.2,9.9,0.3,13.6c0,0.9,0.1,1.8,0.1,2.7c0,1.1,0.4,2.5-0.1,3.1
		c-0.3,0.5-1.8,1-2.1,1c-0.4,0.1-2,0.5-2.3,0.1c-0.1-0.1-0.1-0.3-0.1-0.4c-0.1-3.6-0.2-7.1-0.3-10.7c-0.1-2-0.2-3.9-0.3-5.9
		c0-0.7,0-1.4,0.1-2.2c0-0.5,0.3-0.9,0.7-1.2C219.5,111,220.6,110.6,221.6,110.4z"/>
	<path class="st3" d="M216.1,132.8c-0.8,0.7-1.7,0.7-2.6,0.9c-0.4,0.1-0.7-0.1-0.9-0.4c-0.1-0.2-0.2-0.4-0.2-0.6
		c-0.2-4.9-0.7-16.4-0.8-17.1c0-0.9-0.4-1.3,0.9-1.8c0.4-0.1,2-1,2.5-1.1c0.2,0,0.4,0,0.5,0c0.5,0.2,0.4,0.6,0.4,2.4
		c0.1,3.9,0.1,8,0.2,11.9c0,0.8,0.2,1.6,0.2,2.3c0,0.9,0,1.8,0.1,2.7C216.4,132.4,216.3,132.7,216.1,132.8z"/>
	<path class="st5" d="M136.8,235.7c0.1-1,0.2-2.1,0.2-3.1c0.1-1,0.8-10.1-0.3-10.1c-0.5,0-0.9,1-1,1.3c-0.6,1.1-0.8,2.4-1.2,3.6
		c-1.8,6.3-1.5,13.4-0.6,19.8c0,0.3,0.2,0.6,0.5,0.6c0.2,0,0.3-0.3,0.4-0.5c0.4-1.5,0.8-3,1.1-4.6
		C136.4,240.4,136.6,238,136.8,235.7z"/>
	<path class="st3" d="M208.8,115.6c-0.1,0-0.2,0-0.3,0.1c-0.7,0.3-1.8,0.7-2.2,0.9c-0.4,0.2-0.4,1.3-0.3,2.4
		c0.1,1.1,1.2,15.8,1.2,16.2s0.7,0.4,1.2,0.2c0.5-0.1,1.7-0.5,2.1-0.6c0.4-0.1,0.2-0.9,0.2-1.8s-0.8-16.3-0.9-16.9
		C209.6,115.7,209.1,115.6,208.8,115.6z"/>
	<path class="st3" d="M201.1,126.9L201.1,126.9c-0.4-3.1-0.8-6-0.7-6.2c0.1-0.5,0-1.3,0.5-1.6c0.5-0.3,2.2-1.1,2.8-1.4
		c0,0,0.8-0.5,0.8,1.2c0,1.9,0.6,10.2,0.9,14.3L201.1,126.9z"/>
	<path class="st3" d="M198.6,124l-2.7-3.5c0.5-0.1,1.6-0.4,2-0.4c0.5-0.1,0.5,0,0.5,0.5C198.4,120.8,198.5,122.3,198.6,124z"/>
	<path class="st4" d="M199.5,136.2c0,0.5-0.2,0.7-0.7,0.8s-1.2,0.2-1.5,0.3s-0.6,0.1-0.7-0.8s-0.9-16-0.9-16s0.1,0,0.3-0.1
		c0.9,1.1,1.7,2.3,2.6,3.4C198.9,128.4,199.5,135.9,199.5,136.2z"/>
	<path class="st4" d="M205.1,136c-0.4,0.1-1.4,0.2-1.9,0.4c-0.5,0.1-0.9-0.2-0.9-0.7c0-0.3-0.6-4.7-1.1-8.7c0.2,0.2,0.3,0.4,0.5,0.6
		c0,0.1,0.1,0.1,0.1,0.2l0,0l0.6,0.8l0,0c0.9,1.3,1.7,2.7,2.6,4c0.1,0.2,0.3,0.3,0.4,0.5l0,0c0.1,1.1,0.2,1.9,0.2,2
		C205.6,135.7,205.4,136,205.1,136z"/>
	<g>
		<path class="st3" d="M212.3,80.1v15.6c0,0.1-0.1,0.2-0.1,0.2c-0.6,0.3-2.1,1.2-2.6,1.5c-0.7,0.4-1.1,0.5-1.1-0.3
			c-0.1-2.7-0.1-5.7-0.3-8.4c-0.1-1.5-0.2-2.9-0.3-4.4c0-0.4,0-0.7,0-1.1L212.3,80.1z"/>
		<path class="st3" d="M204.9,99.8c-1.1,0.8-1.2,0.8-2,1.3c-0.5,0.4-1.3,0.6-1.6,0.3c-0.2-0.1-0.3-0.3-0.3-0.7
			c-0.2-3.8-0.5-7.5-0.5-11.4v-0.9l4.7-3.3V97C205.2,97.9,205.6,99.3,204.9,99.8z"/>
		<path class="st3" d="M198.6,100.7c0,0.6,0.1,1.4,0,1.9c-0.3,1-1.8,1.5-2.7,1.8c-0.6,0.2-1.1,0.2-1.1-0.6c0-1,0-1.9,0-2.9
			c0-1.7,0-3.3,0-5c0-0.6-0.2-1.1-0.2-1.7c0-0.5,0.1-1,0.1-1.5l4.3-3.1c-0.1,2.9-0.2,5.7-0.2,8.6C198.7,99.1,198.6,99.9,198.6,100.7
			z"/>
		<path class="st3" d="M226.7,87.7c-0.9,0.6-2.3,1.4-4.2,2.5c-0.2,0.1-0.4,0-0.4-0.2c0-5.6-0.1-11.2-0.2-16.9l5.2-3.7
			c0,2.3-0.1,5.1-0.1,7.7C227,83.5,227.7,87.1,226.7,87.7z"/>
		<path class="st3" d="M219.2,75.1v16.8c0,0.1,0,0.2-0.1,0.2c-1.4,0.8-3,1.6-4.5,2.5c-0.2,0.1-0.4,0-0.4-0.2V78.7L219.2,75.1z"/>
	</g>
	<path class="st4" d="M199,83.9c0,1.9-0.1,3.9-0.1,5.8l-4.3,3.1c0-0.2,0-0.5,0-0.7c0-1.3,0-2.5,0-3.8c0-0.7-0.2-1.3,0.2-1.8
		c0.4-0.6,1.2-0.9,1.7-1.3c0.7-0.5,1.4-1,2.1-1.5C198.8,83.6,199,83.7,199,83.9z"/>
	<path class="st4" d="M205.2,79.5v5.7l-4.7,3.3v-3.3c0-0.7-0.2-1.5-0.1-2.2c0.1-0.8,0.7-1.1,1.3-1.5c1-0.7,2-1.4,3-2.2
		C205,79.2,205.2,79.3,205.2,79.5z"/>
	<path class="st4" d="M212.3,74.5v5.7l-4.4,3.2c0-0.9,0.1-1.8,0.1-2.8s-0.4-2.2,0.1-3.1c0.4-0.7,1.2-1.1,1.8-1.6
		c0.7-0.5,1.4-1,2.1-1.5C212,74.2,212.3,74.3,212.3,74.5z"/>
	<path class="st4" d="M219.2,69.5v5.6l-5,3.6v-6c0-0.1,0-0.2,0.1-0.2l4.5-3.2C219,69.2,219.2,69.3,219.2,69.5z"/>
	<path class="st4" d="M227.2,63.8c0,0.9,0,3-0.1,5.6l-5.2,3.7c0-1.7,0-3.5,0-5.2c0-0.3,0-0.6,0.1-0.9c0.4-0.8,1.5-1.1,2.1-1.5
		c0.9-0.6,1.7-1.2,2.6-1.9C227,63.5,227.2,63.6,227.2,63.8z"/>
	<path class="st4" d="M298.5,144.6c-1.2,0.1-2.4,0.7-2.3,2.3s1.8,25.5,1.9,26.5s0.4,2.7,1.7,3c1.3,0.4,6,1.6,6.7,1.7
		c0.7,0.1,1.7,0.7,1.6-1s-1.9-30.4-2.2-31.6s-0.6-2.2-2.4-1.8C301.6,144.1,298.5,144.6,298.5,144.6z"/>
	<path class="st4" d="M311.6,143c-1,0.1-1.3,0.9-1.2,2.1c0.1,1.2,2.4,31.6,2.4,32.5s0.4,1.7,1.2,1.9s7.9,1.6,9.1,1.8
		s1.5-0.4,1.3-2.2c-0.1-1.8-2.3-35.9-2.3-36.8s-0.5-1.2-1.9-1C318.8,141.5,311.6,143,311.6,143z"/>
	<path class="st4" d="M274.4,170.3c0,1.2-0.5,1.6-1.1,1.6s-2.7-0.1-3.3-0.1c-0.6-0.1-0.9,0-1-0.6v-0.1l-0.5-8.2c0,0,3.6-6.9,5.1-9.7
		C273.9,159.4,274.4,169.5,274.4,170.3z"/>
	<path class="st3" d="M268.6,162.9l0.5,8.2c-0.2-1.8-1.2-21.2-1.1-21.9s0.2-0.7,1-0.9c0,0,2.8-0.4,3.5-0.5s1,0.1,1,0.6
		c0,0.2,0.1,2.1,0.2,4.8C272.1,156,268.6,162.9,268.6,162.9z"/>
	<path class="st4" d="M404.1,99.3c-20.8,5.3-65.8,16.4-65.8,16.4l2.2-4.6c6.4-1.2,44.9-11.9,53.8-13.9l0,0
		C397.2,97.9,400.6,98.5,404.1,99.3z"/>
	<path class="st4" d="M419.4,102.4c-4.9,1.2-8.3,2-8.9,2.2c-2.6,0.7-4.4,1.1-13.5,3.1s-18.1,5.1-56.5,14.6l-0.9-4.2
		c0,0,59.6-14.9,64.9-16.2c1.7-0.4,3.6-0.9,5.4-1.4C413,101.1,416.2,101.7,419.4,102.4z"/>
	<path class="st1" d="M207.3,53.4c0,1.4-0.8,13.4-0.8,13.4l-8,5.3l0.4-12C200.7,58.8,205.5,54.9,207.3,53.4z"/>
	<path class="st2" d="M207.3,53.3L207.3,53.3l-8.4,6.8v-1.2c0,0,7-5.5,7.7-6.1C207.3,52.1,207.3,52.2,207.3,53.3z"/>
	<path class="st1" d="M209.2,46l-12.4,10.7l-0.1-0.8c0.5-0.5,1.2-1.1,1.5-1.5c1.9-2.5,3.4-13.4,3.9-18.6
		C202.1,35.8,206.2,42.1,209.2,46z"/>
	<path class="st4" d="M202.1,35.8c-0.5,6.2-1.9,16.1-3.9,18.6c-0.3,0.4-1,1.1-1.5,1.5c0,0-0.2-1.1,0.2-1.6c2.3-2.8,3.5-13.6,4.2-19
		C201.1,35.3,201.5,35,202.1,35.8z"/>
	<path class="st3" d="M203.1,48.9l-0.8,0.7c-0.1,0.1-0.2,0-0.2-0.1v-5.4c0-0.3,0.1-0.5,0.3-0.7l0.7-0.6c0.2-0.2,0.6,0,0.6,0.3v4.7
		C203.6,48.2,203.5,48.6,203.1,48.9z"/>
	<path class="st3" d="M201.1,35.3"/>
	<g>
		<path class="st3" d="M224.5,51.7c-0.3,0-26.2,20.5-26.6,20.8c-3.7,2.8-7.5,5.5-11.2,8.4c-2.3,1.8-5.8,4.1-7.6,6.4
			c0,0.6,0,1.6,0.1,2.4c0.6-0.3,34.6-26.3,35.9-27.4c2.8-2.3,9.9-8.4,11.6-9.3c0.1-0.1,0.1-1.2,0-1.2
			C226,51.8,225.2,51.7,224.5,51.7z"/>
	</g>
	<path class="st3" d="M200.9,61c-0.3,0.3-0.4,0.6-0.4,1s-0.1,3.5-0.1,3.8s0,0.8,0.5,0.6c0.5-0.2,1.1-0.6,1.2-0.7
		c0.2-0.1,0.2-0.4,0.2-0.8s0.1-4.4,0.1-4.7c0-0.4-0.2-0.3-0.5,0C201.5,60.5,200.9,61,200.9,61z"/>
	<path class="st3" d="M203.4,59.5c0,0.5-0.1,3.8-0.1,4.3c0,0.4-0.1,1,0.5,0.7s0.8-0.4,1-0.6c0.2-0.2,0.3-0.3,0.3-0.8
		s0.2-3.8,0.2-4.2s0-1.3-0.7-0.7c-0.6,0.4-0.7,0.5-1,0.8S203.4,59.5,203.4,59.5z"/>
	<path class="st1" d="M226.7,28.2l-0.1,2.2c0,0-10.1,10.6-10.6,11s2.9-13.7,2.9-13.7l1-6.9l0.2-2.3c1.2,3,3.4,8.1,4.9,9.3
		C225.4,28.1,226,28.2,226.7,28.2z"/>
	<path class="st2" d="M226.1,35.7l-0.1,2.5c-3.1,2.8-7.8,7.1-9.7,8.8v-2.1L226.1,35.7z"/>
	<path class="st1" d="M226,38.2L226,38.2l-0.3,12.4l-9.6,7.3l0.2-10.8l0,0C218.2,45.3,223,40.9,226,38.2z"/>
	<path class="st4" d="M220.4,19.5C220.4,19.6,220.4,19.6,220.4,19.5c-0.8,9.3-4.2,21.3-4.4,21.8c-0.1,0.2-1,0.9-1.2,0.7
		c-0.2-0.1-0.4-0.3-0.1-0.8c1.8-3.4,4.6-20.8,5-23.5l0,0C219.9,18.2,220.2,18.8,220.4,19.5z"/>
	<path class="st3" d="M220,30.1c0,0.9,0,4,0,4.6s0.3,0.4,0.7,0s1.1-1.2,1.4-1.6c0.3-0.4,0.2-0.8,0.2-1.7c0-0.9,0-4.1,0-4.5
		c0-0.5-0.3-1-0.8-0.3c-0.4,0.7-1,1.4-1.3,1.8C220.1,28.9,220,29,220,30.1z"/>
	<path class="st2" d="M247.9,21.5c0,0.1,0,0.3,0,0.5c-1.6,1.2-4.8,3.6-6.8,5.2c0-0.8,0-1.3,0-1.5c0,0,0.1-0.3,0.5-0.7
		c0.5-0.4,4.5-3.6,5.3-4.3S247.9,20.6,247.9,21.5z"/>
	<path class="st1" d="M247.9,22L247.9,22c0,2.3-0.1,10.6-0.1,10.6l-6.8,5.8c0,0,0-7.7,0.1-11.1l0,0C243.1,25.7,246.3,23.2,247.9,22z
		"/>
	<path class="st3" d="M243.1,28.4c0,0.9,0.1,4.1,0.1,4.8s0.2,1.1,0.7,0.7c0.5-0.4,1.2-0.8,1.5-1s0.4-0.9,0.4-1.5s-0.1-4.2-0.1-4.8
		c0-0.6-0.2-1.6-1.2-0.5s-0.7,0.6-1,1.1C243.3,27.7,243.1,28,243.1,28.4z"/>
	<path class="st1" d="M241.9,20.2l-2.2,2.2v0.1l0.3,0.2c0.2,0.1,0.3-0.1,0.5-0.2l2.1-2.1c0.1-0.1,0-0.2,0-0.2l-0.3-0.2
		C242.2,20,242.1,20,241.9,20.2z"/>
	<path class="st4" d="M265.1,275.5c0.6-0.5,1.1-0.5,2.1-0.4c1.1,0.1,8.3,0.2,9.3,0.2s1.3,0.1,1.6,0.2s0.5,0.2,0.6-0.3
		s6.4-14.4,7.9-30.6c0.1-0.8,0.1-3,0.8-3c0.1,0,0.3-0.1,0.3,0.9c0,2-0.2,5.9-0.4,6.7c-0.8,4.5-3.7,17.7-7.8,27.2
		c-0.5,1.1-1.1,1.9-1.7,0.6c-0.2-0.5-1-0.4-1.5-0.5c-2.6-0.2-6.2-0.5-7.5-0.4s-3.2,0.3-3.6,1.1c-0.4,0.8-0.9,1.1-1.1,0.2
		S265.1,275.5,265.1,275.5z"/>
	<path class="st6" d="M211.6,312.9h13.9c-0.3-13.7-0.7-33.8-0.7-34.7c0-1,0.4-0.9,1.3-1.6s2-2.6,0.3-4.5c-1.5-1.6-4.1-2.6-4.1-2.6
		c-0.1-2.1-1-3.2-3.8-3.2s-2.9,3.2-2.9,3.2c-2.8,1.1-4.9,2.3-4.9,4.3c0,1.9,2.1,2.6,2.1,3.6C212.9,278,212.1,298.7,211.6,312.9z"/>
	<path class="st2" d="M222.2,268.2C222.1,268.2,222.1,268.2,222.2,268.2c-0.8-0.6-1.9-0.9-2.8-0.9c-0.9-0.1-1.4,0.1-1.5-0.3
		c-0.1-0.3,0.2-0.6,0.7-0.8C220.8,266.3,221.8,267,222.2,268.2z"/>
	<path class="st2" d="M216.2,271.2c-0.6-0.4-1-0.8-1.4-1.5c0.3-0.1,0.6-0.2,0.8-0.3C215.8,270,216,270.7,216.2,271.2z"/>
	<path class="st2" d="M223.9,270.1c-0.5,0.5-1.1,0.9-1.8,1.2c0.2-0.6,0.3-1.3,0.3-1.9l0,0C222.3,269.4,223,269.7,223.9,270.1z"/>
	<path class="st3" d="M243.8,12.4c0.3-2.3,0.5-4.1,0.5-4.4c0-1.1,0.2-1.1,1-1.1s1.4,0,1.9,0s0.8,0,1,0.7s0.6,1.4,0.6,1.4"/>
	<path class="st4" d="M262.6,312.9c1.9-3.3,3.9-7.2,5.8-11c5.7-11.5,7.7-16,8.7-19s-0.5-1.1-0.9-0.2c-1.3,2.8-8.8,18.4-15.1,30.3
		L262.6,312.9L262.6,312.9z"/>
	<path class="st2" d="M297.2,0.1h-6.3c-17.5,13.2-62.3,46.5-67.1,50.1c-0.4,0.3-0.3,0.4-0.3,0.6c0,0.5,0,1.4,0,1.4L297.2,0.1z"/>
	<path class="st2" d="M230.9,59.9c0.2,6,1.3,61.3,1.8,80.2c0.5,19,1.6,35.7,1.6,35.7l2,1.1l-2.7-116.2L230.9,59.9z"/>
	<path class="st3" d="M299,0.1l-68.8,50.1l-0.7,7.3l4,1.8l0.2,5.3l3.1-2c45.6-29.3,88.3-56.3,98-62.5C334.8,0.1,299,0.1,299,0.1z"/>
	<path class="st3" d="M239.7,180.3c0,0-0.6-46.5-0.9-54.8c-0.4-8.3-1.3-32.3-1.3-37.7c0-5.3,0.1-29.5,0.1-29.5l-4,1.8l3.4,118.7
		L239.7,180.3z"/>
	<path class="st2" d="M163,192.6c0.1,0.4,0.2,0.9,0.2,1.4c0.1,1,0.1,2.1-0.6,2.9c-0.4,0.4-1.1,0.6-1.5,0.3c-0.2-0.2-0.3-0.4-0.4-0.7
		c-0.7-2.1-1.3-4.1-1.8-6.2c-0.4-1.8-0.7-3.8-1.7-5.4c-2.4-3.7-5.1-7.3-8.9-9.6c-1.2-0.8-2.6-1.4-3.7-2.4c-1.1-1-1.8-2.5-1.5-3.9
		c0.3-1.1,1.1-2,1-3.2c-0.1-0.7-0.5-1.3-0.7-2s0-1.6,0.7-1.7c0.5-0.1,1.2,0.3,1.6-0.3c0.3-0.4,0.1-1.1,0-1.5
		c-0.3-1.2-0.8-2.3-1.5-3.3c0.4,0.6,1.4,0.9,1.9,1.6c0.4,0.7,0.7,1.4,0.9,2.2c0.1,0.4,0.2,0.8,0.2,1.1c0,0.5-0.1,0.9,0,1.4
		c0.1,0.4,0.3,0.8,0.2,1.3c-0.1,0.2-0.2,0.4-0.2,0.6c-0.1,0.5-0.1,0.9-0.1,1.4c0,0.4-0.2,0.8-0.2,1.2c0,0.3-0.1,0.6-0.2,0.8
		c-0.1,0.2-0.4,0.4-0.7,0.4s-0.8-0.1-0.9,0.3c0,0.1,0,0.4,0,0.5c0.7,2.6,4.4,1.4,6.2,2.2c1.5,0.7,2.6,2,3.4,3.4c0.6,1,1.1,2,1.7,3
		c1.3,2.7,2.6,5.3,3.8,8C161.5,188.4,162.5,190.4,163,192.6z"/>
	<path class="st4" d="M279.2,231.2c-0.6-0.2-0.9-0.8-1.1-1.3c-0.3-0.7-0.5-1.4-0.6-2.2c-1.2-4.8-4.7-8.5-8.5-11.5
		c-4-3.2-8.3-6.6-12.6-9.4c-5.1-3.3-10.4-6.2-15.9-9c-5.7-2.8-11.5-5.5-17.2-8.2l-7.5-3.5c-5.8-2.7-11.9-5.1-18-7
		c-8-2.6-16.1-5.3-24.1-7.9c-0.4-0.1-0.7-0.2-1-0.5s-0.5-0.7-0.2-1.1c0.4-0.4,1.1-0.1,1.6,0c1.4,0.3,2.8,0.6,4.2,1
		c6.6,1.8,13.1,4.2,19.6,6.3c12.3,3.8,24.2,9.1,35.6,14.9c5.8,3,11.5,6,17.1,9.1c2.6,1.4,5,3.2,7.5,4.7c2.2,1.4,4.3,2.8,6.4,4.4
		c3.9,2.9,8.1,6.2,11.1,10c1,1.3,1.8,2.7,2.4,4.1c0.5,1.1,0.8,2.4,1,3.6C279.2,228.7,279.6,230.3,279.2,231.2z"/>
	<path class="st4" d="M249,193.2c0,0.6,0,1.2,0,1.8c0,1.4-0.1,2.9-0.1,4.3c0,0.4,0.2,1.1-0.4,1.2c-0.6,0.1-1.2-0.4-1.7-0.6
		c-0.7-0.4-0.8-1.4-0.8-2.1c0-1.2,0.1-2.4,0.1-3.5c0-3.3-0.1-6.6-0.1-10c0-0.4,0-0.8,0-1.2c0.1-0.5,0.3-0.9,0.4-1.3
		c0.2-0.5,0.2-0.9,0.1-1.4c-0.1-0.3-0.3-1.6,0.2-1.7c0.2,0,0.6,0.4,0.8,0.4c0.3,0.2,0.5,0.4,0.6,0.8c0,0.2,0,0.5-0.1,0.7
		c-0.1,0.3-0.1,0.6,0,0.9c0.1,0.2,0.4,0.3,0.6,0.5c0.4,0.5,0.2,1.4,0.2,2c0,0.8,0,1.6,0.1,2.3C249,188.7,249,191,249,193.2z"/>
	<path class="st4" d="M286.5,238.4c-0.6-0.3-1.3-0.5-1.9-0.6c-1.4-0.2-2.7,0-4.1,0c-0.3,0-0.7,0-1,0.1c-0.4,0.1-0.9,1.5-1.5,1
		c-0.3-0.3,0-1.3,0.1-1.6c0.4-0.5,1.1-0.5,1.7-0.5c1.1,0,2.2,0,3.4,0c0.8,0,1.6,0,2.5,0c0.9,0.1,1.3,0.1,1.1-1
		c-0.5-3.2-1.3-6.2-2.6-9.2c-2.5-5.9-7.1-11.5-12-15.6c-2.3-1.9-4.6-3.6-7.1-5.2c-5.8-3.8-12.2-6.9-18.4-9.9
		c-4.5-2.2-11.1-5.1-11.1-5.1h2.4c0,0,2.6,1,3.8,1.5c2.1,1,4.3,2,6.4,3c7.2,3.5,14.3,7.2,20.9,11.8c4.5,3.2,8.5,7.1,11.8,11.6
		c4,5.5,7.1,12.6,7.4,19.4C288.3,239.7,287.3,238.9,286.5,238.4z"/>
	<path class="st4" d="M82.2,32.7c0,3.5,0.4,50.2,0.4,52.4S82.3,89,85.2,89s11.9-0.1,12.5-0.1s0.9-0.1,0.9-1s-1.2-51.3-1.2-52.4
		S97,34,95.9,33.8S84.6,31.2,83.6,31C82.7,30.8,82.2,31,82.2,32.7z"/>
	<path class="st4" d="M101.5,37.7c0,1.7,1.2,49,1.2,49.8c0,0.9,0.1,1.1,0.9,1.1c0.7,0,10.5-0.1,10.8-0.1c0.4,0,0.6-0.2,0.6-1.3
		s-0.1-45.8-0.1-46.9c0-1.1-0.2-1.8-1.9-2.3c-1.7-0.5-8-2.2-9.6-2.4S101.5,35.7,101.5,37.7z"/>
	<path class="st4" d="M37.4,25.1c0,3.5-1.1,61.5-1.1,63.5s0.5,2.2,2.4,2.2c1.8,0,11.1-0.9,12.8-1.6c1.6-0.7,1.5-1.3,1.5-3.1
		s0.2-55.4,0-57.4s0.4-2.9-2.9-3.8c-3.3-0.9-8.9-2.2-10.6-2.6C37.8,21.8,37.4,22.3,37.4,25.1z"/>
	<path class="st4" d="M15.9,19.5c0,2.9-0.5,65.8-0.5,69.1s1.3,3.1,3.5,3.1s11.5-0.4,12.2-0.4c0.7,0,1.3-0.5,1.3-1.6
		s1.1-64.7,1.1-66.6c0-1.8,0.2-2.7-2-3.3c-2.2-0.5-11.7-2.9-13.1-3.3C16.8,16.1,15.9,16.8,15.9,19.5z"/>
	<path class="st4" d="M197.4,154.5c0,0.8,0,8.1,0,8.6c0,0.4-0.1,0.7,0.4,0.8c0.6,0.1,1.9,0.2,2.5,0.2c0.5,0,0.6-0.1,0.6-0.6
		s0-8.8,0-9.2s0.1-1.2-0.6-1.2c-0.8,0.1-2,0.3-2.5,0.4C197.4,153.5,197.4,153.9,197.4,154.5z"/>
	<path class="st4" d="M203.7,152.8c-0.6,0.1-0.5,0.1-0.6,0.8s-0.4,9.4-0.4,9.9s0,0.7,0.5,0.9c0.5,0.1,2.1,0.2,2.6,0.3
		c0.5,0,0.6,0,0.6-0.7s0.4-10,0.4-10.4s0.2-1.1-0.7-1C205.3,152.6,203.7,152.8,203.7,152.8z"/>
	<path class="st4" d="M208.7,153.3c-0.1,0.9-0.3,10.4-0.3,10.7c0,0.4,0.2,0.6,0.8,0.8c0.6,0.1,2.3,0.3,2.8,0.3s0.5-0.3,0.5-1
		s0.2-10.9,0.2-11.3c0-0.5,0-1-0.5-1c-0.9,0.1-2.5,0.2-3.1,0.3C208.6,152.2,208.8,152.7,208.7,153.3z"/>
	<path class="st4" d="M214.7,152.7c0,0.8-0.1,11.2-0.1,11.7s0.2,0.9,0.9,0.9c0.7,0.1,2.2,0.2,2.6,0.2c0.4,0,0.5-0.2,0.5-0.8
		s0.3-11.8,0.3-12.4c0-0.6,0-1.2-0.7-1.1c-0.8,0.1-2.7,0.3-3,0.4S214.6,151.9,214.7,152.7z"/>
	<path class="st4" d="M230.4,166.4c-0.8,0-2.3,0-2.8-0.1c-0.7-0.1-0.8-0.6-0.8-1.2c0-1.1,0-2.4-0.1-3.7L230.4,166.4z"/>
	<path class="st3" d="M230.9,166.4c-0.1,0-0.3,0-0.5,0l-3.7-5l0,0c-0.1-3.3-0.2-6.9-0.3-10.2c0-0.7,0-0.9,0.4-0.9
		c0.4-0.1,2.6-0.2,3.2-0.2s0.6,0.5,0.6,1s0.6,13.8,0.7,14.5C231.5,166.3,231.4,166.4,230.9,166.4z"/>
	<path class="st4" d="M225.1,164.5c0,1.2-0.4,1.2-0.8,1.2c-0.4,0-2.3-0.1-3.2-0.2c-1-0.1-0.9-0.7-0.9-1.5c0-0.6,0.1-8.4,0.2-11.1
		l4.5,6.1C225.1,161.3,225.1,163.4,225.1,164.5z"/>
	<path class="st3" d="M225,159.2l-4.5-6.1c0-0.4,0-0.7,0-0.9c0-0.7,0.2-1.1,0.7-1.1s1.9-0.1,2.8-0.1c0.9,0,0.9,0.5,0.9,1.3
		C224.8,152.8,224.9,156,225,159.2z"/>
	<g>
		<path class="st4" d="M338.3,1.1V1C338.2,1,338.3,1.1,338.3,1.1z"/>
	</g>
	<path class="st4" d="M449.4,196.9c-2-0.2-10-1-12.6-1c-3.3-0.1-3-3.2-3.1-5.7c-0.1-3.7-0.2-7.5-0.3-11.2
		c-0.2-7.6-0.9-31.5-0.9-39.1c0-4.9,0.9-5.5,3.8-6.2c3.2-0.7,7.8-1.2,11.9-1.8c1.5-0.2,2.9,0.2,2.9,2.9c0,5.4,0.4,54.6,0.5,60
		C451.6,196.7,451.6,197,449.4,196.9z"/>
	<path class="st4" d="M426.2,194.1c-2.1,0-12.5-1-14-1.3c-2-0.3-2.5-0.9-2.5-2.4c-0.1-7.6-0.2-35.2-0.2-42.8c0-2.3,0-4.7,0-7
		c0-1.5,0-3,1.4-3.9c2.2-1.5,11.5-1.4,14.1-1.7c2.1-0.2,2.2,1,2.2,2.6c-0.1,9.5,0.6,22.1,0.5,31.6c-0.1,4.8,0.1,17,0,21.8
		C427.7,194.2,427.9,194.1,426.2,194.1z"/>
	<path class="st4" d="M359.7,141.5c-3,0.2-2.9,0.5-3,4.3c-0.1,4.2,0.5,8.9,0.7,13.1c0.3,8.4,1,16.1,1.7,24.5
		c0.2,1.9,0.2,2.5,1.7,2.9c1.9,0.4,7.1,1.7,10.1,1.7c1.8,0,2-0.1,2.1-1.8c0.1-4.7-0.5-11.3-0.6-16c-0.3-7.4-0.5-19.8-0.8-27.2
		c-0.1-2.3-1.4-2.5-2.5-2.4C367.9,140.7,361,141.4,359.7,141.5z"/>
	<path class="st4" d="M378.3,140.1c1.6-0.4,10-1.8,11.5-2s3.1,0.7,3.3,4c0.2,3.3,1.6,43.6,1.6,45.2s0,4.2-2.6,4s-9.7-1.3-11.3-1.6
		c-1.6-0.4-2.7-1.1-2.9-4.7c-0.2-3.6-1.8-39.2-1.8-41.2S376.1,140.7,378.3,140.1z"/>
	<path class="st4" d="M455.9,109.8c0,0.8-0.2,1.5-0.4,2.1c-0.9,2.5-5.1,5.9-10.4,4.6s-5.5-7.1-4.1-9.7l0,0
		C446.3,107.8,451.3,108.8,455.9,109.8z"/>
	<path class="st2" d="M455.9,109.8c-4.6-0.9-9.7-2-14.9-3c1.4-2.7,5.7-4.6,9.2-3.8C454.9,104,456.1,107.2,455.9,109.8z"/>
	<path class="st3" d="M376.3,27.6c-2.2,1.3-2.9,1.5-2.9,5.1s0.4,37.9,0.4,41.8c0,3.8,0.4,5.1,3.3,4.2s16.4-6,18.2-6.6
		c1.8-0.5,2.7-0.9,2.7-4s-0.4-44.5-0.4-46.5s0.2-4.2-1.8-3.1C393.8,19.6,376.3,27.6,376.3,27.6z"/>
	<path class="st3" d="M403.3,18.9c0,2.9,0.5,44.7,0.5,47c0,2.4,0.9,3.8,3.6,2.9s19-7.1,20.6-7.7c1.6-0.5,2-0.5,1.8-3.8
		s-1.1-45.4-1.1-48s-0.4-4.4-3.3-3.3s-18.8,7.5-20.4,8.4C403.4,15.4,403.3,16.3,403.3,18.9z"/>
	<path class="st4" d="M317.2,108.8c0,2-0.5,2.5-1.5,2.8s-7,1.9-8.6,2.2c-1.6,0.3-1.6-0.2-1.6-2.2c0-0.1,0-0.3,0-0.5
		c3.5-2.5,7.6-4.3,11.2-5.4c0.1,0,0.2-0.1,0.3-0.1C317.1,107.4,317.2,108.5,317.2,108.8z"/>
	<path class="st4" d="M332.5,106c-0.1,1.8,0,1.9-1.1,2.3c-1.1,0.3-6.8,1.8-8.3,2s-2.1,0-2.3-1.5c0-0.3-0.1-1.8-0.2-4.1
		c4-1.1,8.7-2.1,11.9-3C332.5,104.1,332.5,105.7,332.5,106z"/>
	<path class="st4" d="M249.8,54.3c-2.7,1.8-5.5,3.5-8.3,5.3c0.1-2.8,0.1-4.9,0.2-5.2c0.1-1,0-1.6,0.7-2.1s3.9-3,5.5-4.3
		c1.6-1.2,1.8-0.2,1.8,1.2C249.7,49.7,249.7,51.6,249.8,54.3z"/>
	<path class="st4" d="M260.4,47.5c-2.5,1.6-5.1,3.3-7.7,4.9c0-2.7,0-4.8,0-5.3c0-1,0-1.7,0.7-2.2s4.1-2.7,5.3-3.6
		c1.2-1,1.6-1,1.6,0.5C260.3,42.3,260.3,44.5,260.4,47.5z"/>
	<path class="st4" d="M280.1,34.9c-3.4,2.2-6.9,4.4-10.4,6.6c0-3.4,0-6,0-6.5c0.1-1.2,0.2-1.7,1.1-2.3s5.8-3.9,7.4-5.1
		s1.8-0.5,1.8,0.9C280.1,28.9,280.1,31.5,280.1,34.9z"/>
	<path class="st4" d="M294.1,19c0,0.5,0,3.4-0.1,7.1c-3.5,2.2-7.2,4.6-11,7c0-3.4-0.1-6.1-0.1-6.7c0-1.7,0-2.1,1-2.8
		c1-0.7,6.6-4.6,8.4-6C294.1,16.3,294.1,17.4,294.1,19z"/>
	<path class="st4" d="M315.5,3.8v8.6c-3.5,2.2-7.3,4.6-11.4,7.2c0-3.9,0.1-6.9,0.1-7.6c0-2.2,0-2.4,1.1-3.2c1.1-0.7,6.6-4.6,8.3-5.8
		C315.2,1.8,315.5,2.6,315.5,3.8z"/>
	<path class="st4" d="M330.4,2.9c-3,1.9-6.9,4.4-11.6,7.4c0-4.8,0-8.6,0.1-9.4L330.4,0C330.4,0,330.4,1.1,330.4,2.9z"/>
	<path class="st3" d="M249.5,74.2c-0.7,0.4-6.1,3.6-6.9,4.1s-1.3,0.6-1.3-0.7c0-0.9,0.2-11.4,0.3-18c2.8-1.8,5.5-3.5,8.3-5.3
		c0.1,6.5,0.3,17,0.3,18.1C250.1,73.8,250.2,73.8,249.5,74.2z"/>
	<path class="st3" d="M259.8,68.2c-0.9,0.5-4.3,2.6-5.5,3.2s-1.5-0.1-1.5-1.2c0-0.8-0.1-11.1-0.2-17.7c2.6-1.7,5.2-3.3,7.7-4.9
		c0.1,6.4,0.3,16,0.4,17.8C260.9,68,260.6,67.7,259.8,68.2z"/>
	<path class="st3" d="M280.2,55.1c0,1.7,0,1.8-0.6,2.2s-7.1,3.9-8.4,4.6c-1.3,0.7-1.3,0.1-1.3-1.1c0-0.8-0.1-11.9-0.2-19.3
		c3.5-2.3,7-4.5,10.4-6.6C280.2,42.4,280.2,53.9,280.2,55.1z"/>
	<path class="st3" d="M294,26.1c-0.1,8-0.4,20.1-0.4,21.4c0,1.8,0,2.2-1,2.8s-6.4,3.9-7.9,4.6c-1.5,0.7-1.6,0-1.6-1.7
		c0-1.2-0.1-12.5-0.2-20C286.8,30.7,290.4,28.3,294,26.1z"/>
	<path class="st3" d="M314.5,38.3c-1.1,0.5-7.5,3.6-9.1,4.4c-1.6,0.7-1.6,0.6-1.6-1c0-1.1,0.2-13.6,0.3-22.1c4.1-2.6,7.9-5,11.4-7.2
		v23C315.5,37.2,315.6,37.8,314.5,38.3z"/>
	<path class="st3" d="M330.4,27c-0.1,2.4-0.1,2.3-1.1,3s-7.7,4.4-9.1,5.1c-1.5,0.7-1.3-0.1-1.3-1.3c0-0.8-0.1-14.1-0.1-23.5
		c4.7-3,8.6-5.5,11.6-7.4C330.5,9.4,330.5,25.1,330.4,27z"/>
	<path class="st4" d="M424.7,234.7c-0.1-6.6-0.5-10.1-1.2-18.3c-0.2-1.9,0.6-8.2-2.5-7.1c-1.4,0.5-3.4,1.9-4.8,2.4
		c-1.4,0.6-2.9,1-4.3,1.8c-2.3,1.3-6.1,0.2-8.6-0.2c-1.3-0.2-5-0.1-4.3-2c1.1-0.7,2.3-1.5,3.5-2.3c0.5-0.3,0.9-0.8,1.1-1.3
		c0.2-0.4,0.1-1.9,0.1-2.3c0-0.8-1.6,0.3-2.3,0.5c-1.8,0.5-3.7,0.9-5.2,1.8c-2.8,1.6-5.7,1.8-8.7,1.7c-2.5-0.1-4.7-0.1-7.2-0.5
		c-0.5-0.1-1.1-0.1-1.4,0.3c-0.9,0.8,1,3.2,1.4,4c-0.1,3.2-0.3,6.4-0.4,9.6c-0.6,0.6-1.4,0.2-1.9,0c-4.6-1.4-9.3-2.8-13.9-4.3
		c-4.4-1.4-8.8-2.9-13.1-4.8c-2.5-1.1-5-2.1-7.5-3.1c-0.6-0.3-1.2-0.6-1.9-1l0,0L340.1,0.1h-3.6l0.5,99.1c-0.6,0.3-1.3,0.3-1.9,0.3
		c-0.1,0.5-0.2,1-0.4,1.5c0.2,3.3,0.6,6.6,0.2,9.9c-0.1,0.5,0,1-0.1,1.6c-3.7,1.1-7.4,2.3-11.1,3.4c-5.2,1.7-10.5,2.5-15.8,3.9
		c-3.7,1-7.5,1.8-11.3,2.8c-0.6,0.2-1.4,0.3-2.2,0.5c-4.4,4.9-8.3,9.8-8.3,9.8s7.4-1.3,10.6-2c7.3-1.7,14.5-3.6,21.8-5
		c4.6-0.9,15.4-3.2,15.4-3.2s0.3,30.9,0.3,44.5c0,6.5,0.1,13,0.1,19.5c0,3.3,0,6.7,0,10c0,0.8,1,5.5-0.6,5.1c-4-1.1-18.9-5.2-21.6-6
		c-3.4-1-16.4-5-18.5-5.7c-0.9-0.3-0.7-1-0.7-1.6c0-3.9-0.7-13.1-1-17.1c-0.3-4.9-0.6-9.9-0.8-14.8c-0.1-2.5-0.4-5.2-0.6-7.7
		c-0.1-2-0.3-4.7-1.6-6.3c-1.3-1.5-3.8-2.2-5.5-1s-3.1,2.7-3.9,4.6c-0.6,1.4-1.4,2.6-1.4,4.1c-0.3,8,0.4,16.1,1.1,24.1
		c0.1,0.9,1.3,11.4,0.3,11.5c-0.5,0.1-0.8,0.2-1,0.1c-2.1-0.7-9.1-3.1-9.1-3.1l0.5,7.5c0,0,1.9,0.8,2.6,1.2
		c4.2,1.8,8.4,3.5,12.8,4.9c2.3,0.7,4.6,1.5,6.8,2.4c2.1,0.9,4.1,1.8,6.3,2.3c1.3,0.3,2.6,0.7,3.9,1.2c10.7,4,21.4,8.1,32.1,12.2
		c0,1.5,0.9,2,2,2.3c0.5,0.1,1,0.1,1.5,0.1c1.7-0.1,3.2,0.4,4.8,1.1c5,1.9,10,3.8,15,5.7c2.3,0.9,4.6,1.6,6.8,2.5
		c2.9,1.1,5.8,2.3,8.6,3.5c2.1,0.9,7.1,2.7,7.1,2.7s0,1.9-0.1,2.5c-0.2,0.8-1,0.5-0.9,1.3c0.2,2.4,2,2.8,4.1,3.2
		c3,0.6,6.5,1.5,9.6,1.9c3.6,0.4,4.4,0,4.4,1.1c0,1,0,3.7,0.1,3.9c4.9,2,9.8,3.9,14.8,5.8c0.6,0.2,1.1,0.4,1.7,0.5
		c1.3,0.1,2.4-1.1,3.7-1c1.7,0.1,3.3-0.4,4.9-0.8c0.8-0.2,1.5-0.2,2.3,0.1c2.8,1.1,5.6,2.1,8.4,3.2c1.2,0.5,2.5,1.1,3.6,1.9
		c0.9,0.7,1.7,1.3,2.6,1.8c1.7,0.8,3.3,1.7,5,2.5c4.2,2.1,8.3,4.2,12.5,6.3c3.8,1.9,7.6,3.8,11.4,5.8v-19.3
		c-15.9-5.7-39.9-14.4-42.2-15.2C424.2,237.5,424.8,236.6,424.7,234.7z"/>
	<path class="st2" d="M337.5,81.8c-0.2-3.4,0.1-6.8-0.1-10.3c-0.2-3.9-0.5-46.1-0.9-71.5h-2.4c0.1,5.1,0.1,13.7,0,18.1
		c-0.1,5.1,0.3,21.4,0.3,21.4s-9.8,5.2-14.2,7.5c-3.6,1.9-7.1,3.7-10.7,5.4c-3.6,1.8-7.3,3.4-10.9,5.2c-4,2-8,4.1-12,6.2
		c-4.6,2.4-9.2,4.8-13.8,7.2c-6,3.2-11.9,6.4-17.8,9.6c-4.6,2.5-9.1,4.9-13.7,7.3c-1.1,0.6-3.5,1.9-3.5,1.9v4.3c0,0,3.3-1.9,4.8-2.7
		c4.7-2.6,9.5-5.1,14.3-7.5c7.1-3.5,14.2-7.1,21.2-10.7c3.8-1.9,7.7-3.8,11.5-5.8c5.9-3.1,11.8-6.2,17.7-9.3c1.8-1,3.6-1.9,5.5-2.8
		c6.2-2.9,21.8-10.4,21.8-10.4l0.7,54.4c0,0,1.8,0,2.5-0.8c0.6-1.5,0-3.1,0-4.6C337.6,90.1,337.7,86,337.5,81.8z"/>
	<path class="st3" d="M218.4,47.7c0,0.8-0.1,3.8-0.1,4.4c0,0.6,0.1,1.1,0.8,0.6c0.5-0.4,0.6-0.5,0.9-0.8s0.4-0.4,0.4-1.3
		c0-0.9,0-3.9,0-4.4s0-1.2-0.8-0.6s-0.6,0.5-0.9,0.9S218.4,47.7,218.4,47.7z"/>
	<path class="st3" d="M221.6,44.9c0,0.9,0.1,4.1,0.1,4.9s0.6,0.5,1,0.1s0.7-0.6,1-0.9c0.3-0.3,0.4-0.4,0.4-1.2
		c0-0.7-0.1-4.2-0.1-4.8s-0.4-1.3-1.2-0.4c-0.8,0.9-1,1.3-1.1,1.5S221.6,44.9,221.6,44.9z"/>
	<path class="st3" d="M468.5,77.1c-27.2,7.4-39.5,11.4-44.2,12.5c-4.9,1.1-22.1,6-29.2,7.5c-0.2,0-0.5,0.1-0.7,0.2
		c2.9,0.6,6.3,1.3,9.8,2c4.3-1.1,7.5-1.9,9.1-2.3c9.7-2.6,12.2-3.5,15.1-4c2.5-0.5,31.9-8.5,40.1-10.7L468.5,77.1L468.5,77.1z"/>
	<path class="st3" d="M468.5,84.7c-6.3,1.8-15,4.2-18,5c-4.4,1.1-24.6,6.7-40.5,10.8c3.1,0.6,6.2,1.3,9.5,1.9
		c14.4-3.5,41.6-10.1,49-11.8V84.7z"/>
	<path class="st4" d="M295.3,0.1C287.7,5.6,275,15,270.8,18c-4.7,3.4-9.4,6.7-14.1,10.1c-2.5,1.8-4.8,3.7-7.2,5.5
		c-4,2.9-8,5.6-12,8.4c-3.8,2.6-7.5,5.3-11.3,7.9c-0.6,0.4-2.1,1.5-2.6,2.1c0.8,0.1,2.2,0.1,3,0.2c-2.5,2.1-24.1,19.2-26.1,20.7
		c-1,0.7-5,3.9-6.1,4.8c-1.5,1.2-3.1,2.3-4.6,3.5c-1.5,1.1-2.8,2.4-4.3,3.4c-1.1,0.7-2,1.5-3,2.3c-0.5,0.4-1,0.8-1.5,1.2
		c-0.1,0.1-0.7,0.4-1.1,0.7c-0.2,0.1-0.2,0.1-0.2-0.2c0-0.4,0-1.3,0-1.7c0-0.3,0.1-0.4-0.5-0.4c-0.5,0-8.9,0.4-16.7,0.7
		c-8.9,0.2-17.6,0.3-17.6,0.3s0.2,5.1-0.1,20.2c-6.4,0.9-14.7,1.5-21.1,2.3c-6.7,0.8-13.3,1.7-20,2.4c-12.7,1.3-25.4,2.3-38.2,3.4
		c-8.7,0.8-17.3,1.5-26,2.3c-7.2,0.6-14.8,1.3-22.2,2c-1.2,0.1-9.8,0.8-17.2,1.3v4.1c20.2-1.9,57.7-5.4,64.2-6.1
		c4.2-0.5,8.9-1.2,13.1-1.4c6-0.3,13.7-1.8,19.7-2.4c9-0.9,39.4-4.6,48.4-5.5c0.1,0,0.1,0,0.2,0c0,0.1,0.1,0.2,0.1,0.3
		c0.2,0.4,0.2,1,0.2,1s-4,0.5-5.6,0.7c-5,0.7-10.1,1.3-15.2,2c-19.8,2.9-39.7,5.6-59.6,8.1c-10,1.2-19.9,2.4-29.9,3.6
		c-5,0.6-10,1.1-15,1.7c-0.7,0.1-12.9,0.9-20.5,1.7v4.1c6.7-0.6,19-1.9,20.9-2.1c5-0.6,10-1.3,15-1.9c10-1.3,20-2.6,30-3.9
		c14.1-1.8,28.3-3.8,42.4-5.9c7.1-1,14.3-2.1,21.4-3.2c3.6-0.5,7.2-1.1,10.7-1.6c1-0.1,5-0.5,5.1-0.5c0,0,0.1,12,0.1,13.1
		c0.9-1.2,2-2.2,3.1-3.3c0.4-0.4,0.2-1.4,0.2-1.8c-0.1-0.7,0-1.4,0.1-2.1c0-0.2,0.1-0.5,0.2-0.6c0.1-0.2,0.4-0.2,0.6-0.3
		c1-0.3,1.9-0.4,3-0.5c1.3-0.1,2.5-0.2,3.8-0.3c5-0.3,10.1-0.6,15.1-0.7c1.4,0,2.8-0.3,4.2-0.4c1.3-0.1,3.7-0.2,4.7-0.2
		c0.2,0,0.3,0.1,0.4,0.3c0,1.3,0.1,5.8,0.1,6.3c-0.1,3.7-0.1,7.3,0,11c0.2,6.5,0.2,13.2,0.4,19.7c0,1.7,0.1,3.4,0.1,5
		c0,0.8,0.5,2.7-0.3,3.3s-3,0.3-4,0.3c-3.3,0.2-6.7,0.4-10,0.6c-2.9,0.2-5.8,0.3-8.7,0.4c-0.2,0-0.5,0.3-0.5,0.4c0,0.3,0,0.7,0.1,1
		c0,0.1,0,0.3,0.1,0.4c0.1,0.1,0.3,0.1,0.5,0.1c1.6-0.1,12.8-0.2,14.2-0.1c0.6,0.1,1.3,0,1.9,0.2c0.5,0.1,1,0.5,1.5,0.7
		c1.7,0.6,3.8-0.4,5.4-0.4c0.5,0-0.1,3.2,0.3,3.3c1.4,0.1,7,0.6,8.6,0.7c1.5,0.1,2.9,0,4.4,0.2c2.7,0.4,5.3,0.8,8,1.4
		c1.5,0.3,3,0.5,4.6,0.8c2.9,0.6,5.9,1.1,8.9,1.7c1.7,0.3,3.4,0.8,5.1,1.2c6.1,1.6,12,3.5,18.2,4.7c-0.2-0.2-1.9-1.6-1.9-1.8
		c0.2-2.2-0.1-4.3-0.2-6.5c0-0.4,0-0.7,0-1.1c0-2.3-0.7-27.5-0.7-27.5l2.3-0.5l-0.2-5.5c0,0-1.7,0.4-2.6,0.5c0-0.6,0-2.5-0.1-5.2
		c-0.2-11.4-0.7-36.9-0.7-36.9l2-1.4c0,0,0.1-3.2,0-4.3l-2.3,1.5c0,0-0.1-2-0.1-2.6c-0.1-1.9-0.1-3.9-0.2-5.8
		c-0.2-7.2-0.3-15.9-0.2-23c0-0.5,0-1-0.7-1.3c-0.6-0.3-1.6-0.7-2.8-1.2c-0.4-0.2-0.9-0.4-0.9-0.9s0-1.9,0-1.9s2.6-2,3.7-2.6
		c0.6-0.3,2.1-1.8,2.7-1.8c1.7-1.3,3.5-2.5,5.2-3.8c1.8-1.4,3.5-2.9,5.3-4.2c2.2-1.6,4.4-3.2,6.6-4.8c0.3-0.2,23.4-16.7,28.6-20.4
		c3.8-2.7,7.6-5.4,11.4-8.1C295.9,8,303,3,306.9,0.3h-11.6V0.1z M163.3,111c-0.7,0.1-5.3,0.2-6,0.3s-0.9,0.2-1-0.6s-0.7-7.5-0.7-8.1
		s-0.1-0.9,0.5-0.9c0.7,0,5.8-0.3,6.3-0.3s0.9,0,0.9,0.8c0,0.7,0.7,7.4,0.7,8S163.9,110.9,163.3,111z M173.5,110.2
		c-0.4,0-0.7,0-0.8-0.5s-0.7-7.5-0.8-8.4c-0.1-0.7,0.1-1,0.8-1c0.7-0.1,7.6-0.7,7.6-0.7l0.5,9.9C180.8,109.5,174,110.2,173.5,110.2z
		 M231.7,60.9c0.8,0.3,1,0.6,1,1.5c0,4.6,1.2,59.4,1.3,64.5c0,1.3,0.1,2.8,0.1,4.4c0.4,15.1,1.8,42.6,1.8,42.6l0,0l0,0
		c-0.1-0.2-1.5-1.8-1.8-2.3c-0.1,1.8,0.1,3.9,0.1,4.9c0,0.8,0,0.8-0.8,0.6c-2.2-0.6-11.9-3.1-14.2-3.7c-2.7-0.7-23.1-4.8-24.2-4.8
		c-0.7-0.1-0.4-0.4-0.5-1.2c-0.1-1.3-0.2-3.6-0.3-4.9c-0.3-3.2-0.6-8.1-0.9-11.2c-0.1-0.8,0-1,0.2-1.1c1.6-0.4,5.3-1,7-1.3
		c2.6-0.4,5.4-0.8,8.1-1.2c1.4-0.2,2.9-0.5,4.3-0.7c1.1-0.2,2-0.3,2.3-0.3c-1.1-1.4-2.3-3.1-3.3-4.5c-3.5,0.7-9.3,1.9-12.5,2.4
		c-1.5,0.2-3.1,0.5-4.6,0.7c-0.2,0-1.8,0.4-2,0.3c-0.1-0.6-0.1-1.2-0.1-1.8c-0.2-4.8-0.5-9.6-0.6-14.4c-0.1-2.5-0.4-12.1-0.4-12.1
		l1.2-0.5l-1.4-2.7c0,0-2.1-3.1-2.8-4.1c-0.7-0.9-5.3-6.3-5.3-6.3c-0.8-1-1.5-2.1-2.3-3.1c-0.2-0.2-0.8-0.8-0.8-1.1v-1.4
		c-0.1-1.4,0-6.3,0.2-6.5c2.4-1.6,4.7-3.2,7-4.9c2.3-1.7,4.5-3.4,6.8-5.1c2.7-2,5.4-3.9,8.1-5.8c2.2-1.6,4.5-3.1,6.7-4.7
		c1.3-0.9,2.5-1.9,3.8-2.8c4.2-3.1,8.3-6.3,12.4-9.5c0.2-0.2,1.3-1,1.3-1l0.1-5.8c0.4-0.5,0.9-1.1,1.4-1.7c0.3,1.4,0.4,5.5,0.1,6.2
		c-0.2,0.5-1,1.1-1.5,1.4c-0.1,0.1,0.1,0.6,0.5,0.9c0.2,0.2,0.6,0.4,0.9,0.5C229.2,59.7,230.7,60.4,231.7,60.9z"/>
	<path class="st4" d="M162.3,195.1c-0.1-1.2-0.6-2.2-0.9-3.3c-0.4-1.3-1-2.5-1.5-3.7c-1.7-4.2-4.1-8-6.5-11.8
		c-1-1.6-2.4-2.8-4.4-3.1c-0.5-0.1-1-0.3-1.5-0.4c-0.6-0.2-1.1-0.3-1.7-0.6c-0.7-0.4-1.6-1.3-1.7-2.1c0-0.7-0.2-1.9,0.3-2.5
		c0.4-0.5,0.8-0.6,0.8-1.3c0-0.9-0.5-1.9-0.3-2.8c0.1-0.5,0.4-1.3,1-0.7c0.4,0.3,0.3-0.6,0.3-0.8c0.1-1.3-0.2-2.8-1-3.9
		c-0.9-1.3-2.5-1.9-4-1.5c-1.6,0.4-3,1.7-3.8,3.1c-0.9,1.6-1,3.3-0.8,5c0.1,0.9,0.4,1.8,0.8,2.6c0.2,0.4,0.5,0.8,0.8,1.2
		c0.1,0.1,0.3,0.4,0.4,0.5c0.2,0.1,0.4,0.1,0.6,0.3c0.2,0.3,0.1,0.8-0.2,1c-0.2,0.1-0.5,0.2-0.8,0.3s-0.6,0.1-0.8,0.2
		c-0.1,0-0.3,0.1-0.4,0.2c-0.1,0.2,0,0.3,0,0.5c0,0.3-0.4,0.5-0.7,0.7c-2.2,1.3-3.8,3.2-4.8,5.5c-0.2,0.4-0.4,0.9-0.5,1.3
		c-0.1,0.3-0.7,2.4-0.7,2.4s-0.6,0.3-1.8,0.7c-1.9,0.6-3.9,1.3-5.8,2c-2.6,0.8-5.1,1.6-7.9,2.5c0-0.7-0.1-1.3-0.1-1.8
		c0-10.2-0.3-20.3-0.3-30.5c0-4.3-0.6-8.5-0.3-12.9c0.1-2.1-1.2-3.1-3.1-2.7c-1.3,0.3-2.6,0.6-4,0.9c-2.9,0.6-5.9,1.1-8.8,1.7
		c-4.1,0.9-8.1,1.8-12.2,2.8c-1.3,0.3-2.7,0.4-3.8,1.4c0,0.2-0.1,0.5-0.2,0.8c-0.7,16-0.1,32.1-0.3,48.1c0,1.4-0.2,1.6-1.6,2
		c-2.4,0.8-4.8,1.5-7.2,2.3c-5.7,1.8-11.4,3.7-17.1,5.5c-1.2,0-1.7-36.8-1.7-37.7c-0.1-3.8-0.3-7.6-0.4-11.5c0-0.8,1-6.7-1.1-5.8
		c-1.4,0.6-3,0.1-4.3,0.6c-1.8,0.7-3.8,0.9-5.7,1.1c-4.3,0.4-8.4,1.7-12.6,2.2c-3.2,0.4-6.3,1.2-9.4,1.8c-0.9,0.2-1.7,0.3-2.5,0.6
		c-0.4,0.2-0.9,0.7-0.9,1.1c-0.3,3.6,0.4,7.1,0.4,10.7c0,5,0,10.1-0.1,15.1c0,10.7-0.1,21.5,0.1,32.1c0,1.5-3.9,2.6-6.6,3.3
		c-0.9,0.2-1.7,0.4-2.1,0.6c-2.4,0.9-7.3,2-9.2,4.1v40.6c20.1-13.4,45.6-27,66.2-37.7c7.7-4,16-7.5,23.3-12.2
		c2.3-1.4,4.2-3.3,5.4-5.6c1.3-2.5,2.8-4.7,4.9-6.4c1.6-1.3,3.2-2.7,4.8-4c1.5-1.2,3.2-2.1,4.8-3.1c1.7-1.1,3.5-2.1,5.3-3.1
		c4.3-2.2,8.6-4.7,13.1-6.5c0.3-0.1,1.3-0.5,1.7-0.6c0.1,0.5-0.5,1.2-0.6,1.4c-0.9,2.3-0.7,4.8-0.9,7.2c0,0.6,0.1,1.3-0.2,1.7
		c-0.9,1.6-1,3.5-1.2,5.3c-0.1,1-0.4,2.4-0.1,3.4c0.6,1.7,2.7,2.9,4.3,3.3c1.2,0.3,2.3,1,3.4,1.6c1.5,0.8,2.2,2.4,2,4.1
		c-0.8,0-1.6,0.1-2.5,0.1c-0.7,0-1.4-0.1-2.1-0.1c-1.8,0-2.6,0.9-2.8,2.7c-0.1,1.8,0.5,3.7,1.4,5.3c0.2,0.3,0.7,0.8,0.7,1.1
		c0,0.4-0.3,1.1-0.4,1.4c-0.3,0.9-0.5,1.9-0.8,2.8c-1.1,4.5-1.6,9.2-1.6,13.9c0,2.5,0,5.1,0.4,7.6c0.2,1.3,0.4,2.5,0.9,3.7
		c0.4,1.2,0.6,2.1,2,2.3c0.9,0.1,2.2,0.1,2.9-0.6c1-1,1.7-2.7,2.2-4c1.7-4.8,2.5-10,2.8-15c0.2-3.5,0.3-7.1,0.4-10.6
		c0-0.8,0.1-1.5,0.1-2c0-0.6,1.1-1.1,1.5-1.4c0.4-0.3,0.8-0.7,0.8-1.2c0-0.6-0.7-0.7-0.8-1.2c-0.2-0.5,0.4-0.9,0.7-1.2
		c0.9-0.8,1.8-1.6,2.5-2.7c0.1-0.2,0.3-0.5,0.3-0.8c0-0.5-0.4-0.8-0.8-1.1c-0.1-0.1-0.3-0.2-0.2-0.4c0-0.1,0.1-0.1,0.2-0.2
		c0.5-0.3,1-0.7,1.5-1c0.3-0.2,1-0.8,1.3-0.3c0,0.1,0.1,0.2,0.1,0.3c0,0.3,0.1,0.6-0.1,0.8c0,0.1-0.1,0.2-0.2,0.2
		c-0.3,0.3-0.6,0.6-0.8,1s-0.4,0.7-0.5,1.1c-0.3,0.8-0.5,1.7-0.7,2.5c-0.4,1.4-0.6,2.7-0.8,4.1c-0.5,3.8-0.4,7.5-0.4,11.3
		c0,1.7-0.9,10,1.6,10.1c0.3,0,0.6,0,0.9,0c0.5,0,1.1,0.1,1.4-0.3c0.2-0.2,0.3-0.4,0.4-0.6c0.6-1.4,1-2.8,1.4-4.2
		c0.2-0.9,0.4-1.8,0.6-2.7c0.2-0.9,0.3-1.7,0.5-2.6c0.6,0,1.4-0.2,1.8-0.6c0.6-0.6,0.7-1.6,0.8-2.4c0.2-0.9,0.3-1.9,0.4-2.8
		c0.1-1.5,0.4-2.9,0.4-4.4c0.1-2.3,0.1-4.7,0.2-7c0-0.6,0.4-0.7,0.8-1c0.2-0.1,0.4-0.3,0.5-0.5c0.3-0.3,0.6-0.7,0.8-1.1
		c0.5-1,0.4-1.9,0-2.8c-0.1-0.3-0.1-0.8-0.1-1.2c0.2-1.9-0.5-3.7-0.6-5.5c-0.2-1.6-0.5-3.1-0.8-4.7c-0.2-0.8-0.4-1.5-0.6-2.3
		c-0.1-0.2-0.6-2.3-0.3-2.3c0.2,0,0.6,0.6,0.6,0.8c0.2,0.3,0.2,0.8,0.3,1.1c0.1,0.6,0.3,1.3,0.8,1.5c0.4,0.1,0.9,0,1.2-0.2
		s0.7-0.5,1.1-0.6c0.1,0,0.9,1.6,1,1.8c0.7,0.8,1.9,1.3,3,0.9C162.6,197,162.3,195.8,162.3,195.1z M136.7,234.8
		c-0.2,2.8-0.3,5.4-0.9,8.2c-0.1,0.5-1,5.2-1.7,4.9c-0.2-0.1-0.2-0.3-0.2-0.5c0-0.1,0-0.2,0-0.3c-0.3-3.6-0.5-7.3-0.3-11
		c0.2-3.5,0.5-7,1.4-10.4c0.3-1.1,0.8-1.8,1.4-2.8c0.2-0.2,0.4-0.4,0.7-0.3c0.2,0.1,0.3,0.4,0.3,0.7
		C137.2,227.1,136.9,231,136.7,234.8z M147.9,236.4c0,0.2-0.2,0.5-0.4,0.4c-0.2,0-0.2-0.2-0.2-0.4c-0.1-3.2,0.1-6.3,0.2-9.5
		c0.1-3.5,0.3-7,1-10.4c0.1-0.5,0.2-0.9,0.3-1.4c0-0.1,0.1-0.3,0.2-0.3c0.2,0,0.2,0.2,0.3,0.4C149.8,222.2,149.5,229.5,147.9,236.4z
		"/>
</g>
<g id="Layer_2" class="st7">
	<g class="st8">
		<g>
			<g>
				<defs>
					<rect id="SVGID_1_" x="-2.8" y="-7.6" width="473.2" height="329.4"/>
				</defs>
				<clipPath id="SVGID_2_">
					<use xlink:href="#SVGID_1_"  style="overflow:visible;"/>
				</clipPath>
				<g class="st9">
					
						<image style="overflow:visible;enable-background:new    ;" width="4032" height="3024" xlink:href="../../../../../../../../../Downloads/Untitled_Artwork 4.png"  transform="matrix(0.2954 1.162880e-02 -1.162880e-02 0.2954 -551.2852 -225.8974)">
					</image>
				</g>
			</g>
		</g>
	</g>
</g>
</svg>
