<svg xmlns="http://www.w3.org/2000/svg" xmlns:xlink="http://www.w3.org/1999/xlink" viewBox="0 0 244.46 297.26">
  <defs>
    <symbol id="illustration-addy-box" data-name="abby-box" viewBox="0 0 125.05 36.13">
      <path fill="#dbaf9b" d="M5.33 13.52s-.03.03 0 0zM10.76 9.4a.58.58 0 0 1 .19 0 .4.4 0 0 0-.19 0zM98.44 34.45s.04-.01 0 0zM92 34.49l-.13-.07s.13.05.13.07z"/>
      <path fill="#dbaf9b" d="M125 20.24c.26-.66-.29-2.29-.37-3-.32-2.62-.42-5.36-.83-7.48 0 .11-1.15-8.14-1.15-8.14l-20.47-.38-2.84-.08L83.17.89 75.44.71C69.14.58 62.83.61 56.52.58 46 .54 35.5.24 25 0c-2.1 0-2.87-.25-4.53 1l-2.6 1.89c-1.1.8-2.19 1.6-3.3 2.38C14.21 5.51.64 15 0 15c.36 2.92.74 5.84 1.09 8.76.19 1.63.43 3.25.62 4.88.18 1.46-.05 3.54.55 4.84s3.88.91 4.77.93c.33 0 22.54.4 25.29.38 8.72-.06 17.45.12 26.17.3 5.39.11 19.29.35 20.87.37 1.25 0 8.94.39 9.55.25 0 0 9.61.76 13.48.3 0 .15 4.85-2.86 6.55-4 0 0 8.89-6.43 13.48-9.68.66-.52 2.28-1.33 2.58-2.09zM21.19 1.91C23.94 0 33.5 1.23 33.83 1.23c1.72 0 11.87.07 15.2.26-.36 0 14.44.34 14 .32 9-.32 30.85.2 31.9.22 1.74 0 3.49.09 5.24.13h2.64c.5 0 16.92.3 17.62.29-3.5 2.6-7 5.2-10.56 7.74-1.78 1.28-8.86 6.91-9 7s-.4 0-.94-.11c-2.85-.43-6-.13-8.93-.19-12.13-.27-37.36-.89-37.36-.89q-25.57-.45-51.16-1c1-.66 1.86-1.29 2.85-2-.33.31 12.42-8.74 15.86-11.09zm74.73 32.77l-33.05-.52c-3.12 0-6.23 0-9.34-.21.34 0-11.06.22-13.93-.11.41 0-15.85-.28-24.16-.39 1.25.1-11.72.15-12.11-.13-.21-.16-2.12-16.93-2.16-17.16a12.49 12.49 0 0 1 2.2-.16c0 .11 22.45.78 27.75.91 12.75.29 47.08 1.1 51 1.18 3 .05 5.94.15 8.92.21 2.12 0 4.25.1 6.37.12.88 0 2 .19 2.94.12 0 .1.12 1.85.14 2.31.07 1.4 1 8.62 1.44 10.71.12 1.18.26 2.36.4 3.55-.59-.03-5.23-.39-6.41-.43zm7.37-.18c0-.21-.33-2.14-.5-3.54 0-1.11-1.29-12.5-1.33-12.68a23.75 23.75 0 0 0 3.38-2.52c1.35-1 2.72-2 4.09-2.95 4.3-3.08 8.58-6.17 12.88-9.26a32.39 32.39 0 0 1 .73 5.25c.22 1.24.34 2.49.5 3.75 0 .26.53 4.23.56 4.5a18.93 18.93 0 0 0 .42 2.8c.04.4-18.72 13.24-20.73 14.65z"/>
    </symbol>
  </defs>
  <g data-name="Layer 2">
    <g data-name="Layer 1" opacity=".4">
      <use width="125.05" height="36.13" transform="rotate(20 -172.6814 263.9726)" xlink:href="#illustration-addy-box"/>
      <use width="125.05" height="36.13" transform="matrix(-.1 .99 -.99 -.1 70.57 1.56)" xlink:href="#illustration-addy-box"/>
      <use width="125.05" height="36.13" transform="matrix(-.77 .64 -.64 -.76 108.72 150.15)" xlink:href="#illustration-addy-box"/>
      <use width="125.05" height="36.13" transform="matrix(.5 .87 -.86 .5 165.54 178.97)" xlink:href="#illustration-addy-box"/>
      <use width="125.05" height="36.13" transform="matrix(.5 .87 -.86 .5 184.54 163.97)" xlink:href="#illustration-addy-box"/>
      <use width="125.05" height="36.13" transform="rotate(20 -591.6745 248.1779)" xlink:href="#illustration-addy-box"/>
    </g>
  </g>
</svg>
